<?xml version="1.0" standalone="no"?>
<!DOCTYPE svg PUBLIC "-//W3C//DTD SVG 20010904//EN"
 "http://www.w3.org/TR/2001/REC-SVG-20010904/DTD/svg10.dtd">
<svg version="1.0" xmlns="http://www.w3.org/2000/svg"
 width="460.000000pt" height="460.000000pt" viewBox="0 0 460.000000 460.000000"
 preserveAspectRatio="xMidYMid meet">

<g transform="translate(0.000000,460.000000) scale(0.100000,-0.100000)"
fill="#000000" stroke="none">
<path d="M480 4591 c0 -5 11 -11 25 -13 17 -4 25 -1 25 8 0 8 -11 14 -25 14
-14 0 -25 -4 -25 -9z"/>
<path d="M610 4543 c1 -32 6 -68 13 -80 l13 -23 17 29 c9 16 28 31 41 35 16 4
25 15 30 37 11 58 11 59 -54 59 l-60 0 0 -57z"/>
<path d="M3092 4546 c-15 -65 -8 -106 19 -106 10 0 22 -7 26 -15 5 -8 14 -11
20 -7 9 6 9 17 -2 47 -8 22 -14 61 -15 88 0 38 -3 47 -18 47 -13 0 -21 -14
-30 -54z"/>
<path d="M3223 4538 c11 -68 11 -73 7 -163 -2 -43 -8 -65 -21 -78 -23 -22 -24
-33 -3 -45 12 -7 15 -18 12 -43 -3 -19 -2 -42 3 -51 6 -11 4 -33 -6 -63 -9
-25 -13 -55 -10 -66 4 -11 1 -32 -6 -48 -10 -22 -17 -27 -37 -23 -20 4 -23 1
-20 -19 2 -19 9 -24 33 -24 22 0 31 -5 33 -20 4 -31 -13 -51 -31 -37 -16 14
-27 6 -27 -20 0 -12 11 -23 28 -29 15 -5 35 -23 45 -40 23 -41 22 -56 -3 -34
-13 11 -20 14 -20 6 0 -8 -7 -10 -19 -6 -19 6 -21 -1 -12 -54 1 -2 10 4 20 13
18 17 39 7 27 -12 -6 -9 81 -112 94 -112 14 0 68 -54 70 -70 4 -30 0 -49 -16
-65 -15 -15 -14 -19 12 -48 16 -17 33 -35 38 -38 4 -4 5 -16 2 -27 -4 -11 -2
-23 3 -27 6 -3 8 -24 4 -50 -3 -29 -1 -50 6 -59 16 -19 12 -140 -6 -225 -8
-35 -15 -90 -16 -123 -1 -47 -6 -65 -24 -84 -29 -31 -30 -70 -3 -84 11 -6 18
-15 15 -21 -4 -5 1 -12 9 -15 9 -3 16 -15 16 -25 0 -14 9 -21 31 -26 25 -5 30
-9 24 -27 -11 -37 -13 -51 -14 -73 -1 -13 -5 -23 -9 -23 -5 0 -13 10 -19 23
-5 12 -20 43 -31 70 -12 26 -26 47 -32 47 -14 0 -13 -15 6 -58 8 -20 17 -52
20 -69 3 -28 1 -33 -16 -33 -11 0 -20 -5 -20 -11 0 -5 -4 -7 -10 -4 -11 7 -11
-9 0 -45 4 -14 8 -19 9 -12 1 18 21 5 21 -14 0 -8 9 -24 20 -36 23 -25 26 -48
5 -48 -8 0 -22 16 -31 35 -15 33 -34 47 -34 25 0 -5 -7 -10 -15 -10 -8 0 -15
-2 -15 -4 0 -10 58 -64 75 -70 11 -3 35 -19 53 -34 24 -20 31 -32 26 -45 -3
-10 -12 -16 -19 -13 -19 7 -27 -5 -13 -21 17 -21 1 -27 -26 -9 -33 21 -60 21
-52 0 3 -9 6 -18 6 -20 0 -2 11 -4 23 -4 28 0 70 -40 50 -47 -27 -9 -12 -22
18 -16 29 6 31 4 24 -17 -4 -12 -3 -25 2 -29 15 -11 62 -89 68 -114 4 -14 19
-37 35 -52 23 -22 28 -24 33 -11 4 9 1 16 -5 16 -9 0 -9 3 -1 11 9 9 6 20 -13
44 -32 42 -31 65 1 65 18 0 25 5 25 19 0 11 -4 23 -10 26 -5 3 -10 16 -10 27
0 18 5 20 39 15 l40 -5 4 47 c2 28 4 14 5 -37 1 -59 -1 -81 -9 -76 -8 5 -9 -6
-4 -37 4 -24 14 -48 23 -53 9 -5 28 -22 43 -38 27 -27 29 -27 39 -8 7 13 21
20 39 20 16 0 31 7 35 15 3 8 2 15 -2 15 -8 0 -9 22 -10 190 -1 281 0 290 53
290 44 0 63 -40 45 -95 -9 -26 -8 -39 1 -57 7 -13 14 -76 16 -145 4 -112 2
-126 -16 -152 -12 -16 -21 -36 -21 -45 0 -9 -4 -16 -10 -16 -17 0 -11 -40 10
-69 16 -24 18 -36 11 -79 -4 -28 -6 -63 -4 -79 3 -19 -1 -34 -11 -42 -18 -15
-22 -41 -6 -41 17 0 11 -42 -7 -56 -17 -11 -14 -16 26 -53 24 -23 46 -41 47
-41 6 0 -4 316 -11 343 -5 19 -2 35 10 54 16 23 17 41 10 147 -10 150 -7 218
8 228 9 6 8 11 -3 19 -9 6 -11 12 -4 15 6 2 8 18 6 34 -3 24 -1 29 11 25 8 -4
29 7 48 24 l33 31 21 -26 c18 -23 23 -25 36 -12 8 8 19 13 26 11 17 -6 21 28
7 57 -7 14 -15 33 -18 43 -4 12 -16 17 -38 17 -35 0 -70 34 -45 43 7 3 -3 10
-20 17 -41 15 -42 25 -3 39 22 7 30 7 30 -1 0 -6 2 -9 5 -6 4 3 3 17 -1 32 -4
17 -22 34 -54 52 -46 25 -48 29 -64 92 -17 70 -20 114 -10 125 9 9 44 -16 44
-32 0 -24 40 -52 60 -41 25 13 45 4 59 -26 6 -13 18 -27 26 -30 8 -4 15 -12
15 -20 0 -10 12 -14 39 -14 22 0 46 -7 55 -15 8 -8 19 -15 25 -15 13 0 14 -6
2 -48 -7 -22 -6 -32 1 -32 7 0 9 -16 5 -42 -3 -24 -3 -35 0 -25 5 19 9 20 71
17 39 -1 42 0 42 24 0 16 6 26 15 26 8 0 21 13 29 28 8 16 22 34 30 41 8 7 25
33 37 58 20 42 21 51 11 103 -7 31 -12 70 -12 87 0 55 -31 134 -57 144 -13 5
-22 12 -21 16 0 5 -3 19 -9 33 -23 55 -24 67 -7 74 15 6 15 8 0 31 -9 13 -16
30 -16 37 0 18 -44 58 -64 58 -30 0 -16 19 22 30 23 7 42 21 49 36 6 13 7 24
2 24 -5 0 -9 -5 -9 -10 0 -7 -6 -7 -18 -1 -20 11 -222 14 -222 3 0 -3 11 -18
25 -32 23 -24 24 -30 14 -58 -12 -36 -9 -35 -101 -32 l-66 2 -7 -34 c-8 -41
-25 -77 -47 -102 -16 -18 -17 -18 -24 8 -3 14 -3 41 0 59 4 17 9 58 13 90 4
44 9 57 19 53 8 -3 14 1 14 9 0 8 -7 15 -15 15 -8 0 -15 6 -16 13 0 6 -2 54
-3 105 l-4 93 30 -6 c30 -7 88 10 88 26 0 12 52 -11 68 -30 6 -8 12 -27 12
-41 0 -15 13 -42 31 -63 28 -33 37 -37 80 -37 46 0 49 2 49 25 0 16 6 25 15
25 8 0 15 -5 15 -10 0 -6 12 -15 27 -21 24 -9 30 -7 42 10 8 13 24 21 42 21
28 0 29 1 28 53 0 41 -2 47 -9 30 -5 -13 -14 -23 -19 -23 -6 0 -21 -11 -35
-25 -22 -22 -34 -25 -98 -25 -40 0 -83 -3 -95 -6 -29 -8 -29 2 2 81 22 54 24
67 13 84 -13 22 -38 29 -38 11 0 -14 -36 -31 -53 -24 -8 3 -17 14 -20 25 -3
12 -14 19 -29 19 -13 0 -29 9 -36 20 -7 12 -8 20 -2 20 5 0 10 5 10 10 0 6 -7
10 -15 10 -10 0 -15 7 -13 18 2 10 -3 17 -12 17 -8 0 -14 -7 -13 -15 3 -16
-63 -48 -74 -37 -9 10 -10 58 -1 63 5 4 7 17 4 30 -5 19 -2 26 16 33 13 5 24
5 26 1 2 -4 20 -4 40 1 63 15 80 11 94 -18 8 -17 21 -28 33 -28 16 0 21 -8 23
-39 3 -35 20 -66 37 -66 4 0 5 25 3 55 -1 30 0 55 5 55 4 0 7 -28 7 -62 1 -59
2 -62 16 -43 12 15 14 34 11 73 -5 42 -2 54 11 61 9 4 23 6 30 4 6 -3 12 2 12
10 0 9 -6 18 -12 20 -10 4 -10 6 0 6 7 1 23 -11 36 -25 21 -25 24 -26 51 -13
19 10 33 30 47 67 11 28 24 52 29 52 5 0 9 21 9 46 0 30 -4 43 -11 38 -8 -5
-8 -1 0 14 17 32 13 51 -18 84 -32 34 -31 57 3 59 11 1 28 2 36 3 24 2 32 85
11 119 -16 25 -19 26 -31 13 -18 -22 -40 -20 -40 4 0 11 -5 20 -11 20 -8 0 -8
5 1 15 7 8 25 15 40 15 15 0 32 6 36 13 14 18 11 72 -3 73 -7 1 -22 2 -33 3
-16 1 -20 8 -20 40 0 21 -6 43 -13 49 -19 16 -62 1 -87 -30 -12 -16 -27 -28
-33 -28 -7 0 -6 4 3 10 13 8 12 10 -1 15 -9 3 -33 8 -55 9 -21 2 -42 4 -46 5
-5 1 -8 10 -8 20 0 11 -4 23 -10 26 -5 3 -10 24 -10 46 0 35 -2 39 -26 39 -25
0 -25 -2 -19 -40 6 -36 5 -40 -15 -40 -20 0 -21 4 -15 40 l7 40 -106 0 c-96 0
-106 -2 -106 -18 0 -11 -9 -27 -20 -37 -14 -13 -17 -22 -10 -29 15 -15 12 -47
-11 -91 -15 -29 -19 -33 -15 -14 4 19 1 29 -9 33 -10 4 -15 20 -15 49 0 25 -3
59 -6 76 l-6 31 -298 0 -297 0 10 -62z m587 -28 c0 -5 -4 -10 -10 -10 -5 0
-10 5 -10 10 0 6 5 10 10 10 6 0 10 -4 10 -10z m326 -21 c10 -17 -13 -36 -27
-22 -12 12 -4 33 11 33 5 0 12 -5 16 -11z m-254 -205 c10 -22 10 -28 -6 -39
-24 -18 -43 -9 -49 23 -9 46 36 59 55 16z m134 -28 c9 -3 28 1 43 10 26 15 29
15 65 -10 22 -14 42 -26 46 -26 18 0 70 33 70 45 0 16 25 26 45 19 9 -4 15
-19 15 -39 0 -19 5 -37 10 -40 6 -3 10 -22 10 -41 l0 -34 -25 22 c-15 13 -25
32 -25 49 0 15 -7 29 -15 33 -11 4 -15 -1 -15 -19 0 -20 -5 -25 -24 -25 -13 0
-30 -7 -37 -16 -12 -15 -14 -15 -19 1 -5 15 -7 15 -22 -2 -14 -16 -14 -21 3
-58 10 -22 19 -32 19 -22 0 41 62 -2 95 -68 11 -22 21 -41 22 -43 0 -2 10 3
22 10 21 13 28 34 12 40 -4 2 -11 20 -15 41 -6 33 -5 37 13 37 11 0 22 -9 26
-19 3 -11 12 -22 20 -25 20 -7 19 -32 -1 -40 -12 -5 -15 -16 -12 -41 3 -25 -1
-40 -14 -51 -16 -15 -21 -15 -57 -1 -37 15 -40 15 -57 -4 -16 -17 -19 -18 -40
-4 -23 14 -24 14 -32 -17 -5 -19 -5 -36 0 -39 5 -3 -7 -20 -26 -37 -32 -28
-39 -30 -61 -20 -18 8 -35 8 -60 1 -19 -6 -37 -8 -38 -5 -6 11 -7 206 -1 224
5 16 20 18 41 5 7 -5 9 -1 6 13 -3 13 -14 20 -29 20 -24 0 -31 15 -16 35 4 6
23 12 42 13 19 2 45 10 58 18 l23 15 -25 20 c-26 21 -56 25 -56 8 0 -6 -9 -8
-22 -3 -31 9 -31 7 -18 55 13 49 33 69 38 40 2 -11 10 -22 18 -25z m-640 -121
c9 -35 1 -40 -36 -25 -29 12 -30 14 -14 31 24 26 42 24 50 -6z m1024 -31 c0
-8 -4 -12 -10 -9 -5 3 -10 10 -10 16 0 5 5 9 10 9 6 0 10 -7 10 -16z m-534
-21 c-4 -4 -12 -1 -19 7 -9 10 -9 11 1 6 7 -4 12 -2 13 6 0 11 2 11 6 0 3 -7
2 -16 -1 -19z m-139 -102 c10 -15 10 -20 0 -24 -9 -3 -9 -8 2 -20 19 -23 31
-21 32 6 0 21 1 21 9 2 4 -12 15 -27 24 -34 8 -7 18 -35 22 -62 5 -34 12 -50
24 -54 19 -6 62 -57 72 -86 9 -24 -19 -59 -47 -59 -26 0 -45 25 -45 60 0 12
-4 19 -9 16 -5 -3 -7 -15 -4 -26 8 -28 -15 -25 -28 4 -9 19 -16 23 -33 17 -22
-9 -33 -37 -35 -88 -1 -24 6 -36 28 -52 16 -12 39 -21 50 -21 19 0 21 -6 21
-59 0 -33 5 -72 10 -87 6 -16 7 -31 1 -38 -5 -6 -13 -33 -19 -59 -9 -46 -9
-48 17 -62 14 -8 21 -14 14 -15 -20 0 -73 -60 -73 -82 0 -11 11 -29 25 -40 14
-11 25 -28 25 -38 0 -10 -11 -27 -25 -38 -14 -11 -25 -25 -25 -31 0 -6 -11
-11 -25 -11 -22 0 -25 -4 -25 -40 0 -32 -4 -40 -18 -40 -15 0 -17 6 -14 38 3
20 8 39 12 42 13 9 24 160 11 160 -6 0 -11 17 -11 40 0 33 3 40 20 40 14 0 20
7 20 21 0 31 -30 127 -50 163 -14 23 -17 44 -13 84 3 28 8 52 12 52 4 0 5 18
3 40 -3 29 0 40 9 40 10 0 11 2 2 8 -26 16 -40 62 -33 102 4 22 3 61 -1 87
-10 50 1 100 30 140 20 28 23 28 38 4z m77 -9 c3 -5 -1 -9 -9 -9 -8 0 -12 4
-9 9 3 4 7 8 9 8 2 0 6 -4 9 -8z m76 -56 c0 -23 -30 -41 -48 -30 -23 15 -25
29 -7 48 12 12 21 13 36 6 10 -6 19 -17 19 -24z m495 -46 c0 -34 -44 -36 -56
-2 -5 14 -5 21 0 17 5 -3 13 -1 16 5 12 20 40 6 40 -20z m-805 -60 c0 -5 7
-10 15 -10 18 0 21 -50 3 -68 -17 -17 -26 -15 -38 9 -12 22 -4 79 11 79 5 0 9
-4 9 -10z m-194 -45 c18 -44 18 -47 -6 -75 l-20 -23 0 26 c0 14 -4 27 -10 29
-9 3 7 78 17 78 2 0 11 -16 19 -35z m254 -30 c0 -8 -4 -15 -10 -15 -5 0 -10 7
-10 15 0 8 5 15 10 15 6 0 10 -7 10 -15z m-50 -104 c0 -6 -4 -13 -10 -16 -5
-3 -10 1 -10 9 0 9 5 16 10 16 6 0 10 -4 10 -9z m440 5 c0 -3 -4 -8 -10 -11
-5 -3 -10 -1 -10 4 0 6 5 11 10 11 6 0 10 -2 10 -4z m-162 -32 c31 -22 28 -44
-6 -44 -37 0 -67 22 -59 44 8 20 36 21 65 0z m137 6 c8 -13 -14 -42 -25 -35
-10 6 -1 45 11 45 4 0 11 -5 14 -10z m-115 -509 c0 -31 -25 -49 -34 -25 -12
32 -6 54 14 54 15 0 20 -7 20 -29z m-51 -212 c14 -40 14 -156 1 -164 -5 -3
-10 -15 -10 -26 0 -23 -19 -25 -35 -2 -8 10 -28 16 -58 17 -45 1 -67 21 -31
28 13 2 17 17 18 73 1 66 2 70 24 68 15 -2 22 3 22 15 0 15 2 15 11 2 9 -13
12 -13 22 3 17 24 23 22 36 -14z m144 -11 c6 -40 -7 -53 -18 -18 -6 18 2 67 9
58 2 -2 6 -20 9 -40z m-318 -358 c-4 -11 -11 -18 -16 -15 -11 7 -12 48 -2 59
11 11 25 -23 18 -44z m469 -175 c-4 -8 -10 -12 -15 -9 -14 8 -10 24 6 24 9 0
12 -6 9 -15z m-314 -315 c0 -5 -4 -10 -10 -10 -5 0 -10 5 -10 10 0 6 5 10 10
10 6 0 10 -4 10 -10z m14 -96 c19 -7 21 -35 4 -52 -14 -14 -32 -16 -24 -3 3 5
-1 14 -9 21 -32 27 -12 50 29 34z"/>
<path d="M4022 4020 c0 -14 2 -19 5 -12 2 6 2 18 0 25 -3 6 -5 1 -5 -13z"/>
<path d="M4240 4565 l0 -35 20 20 c11 11 29 20 40 20 11 0 20 7 20 15 0 11
-11 15 -40 15 -39 0 -40 -1 -40 -35z"/>
<path d="M289 4585 c-13 -20 -19 -70 -10 -84 8 -12 11 -10 16 11 8 30 3 87 -6
73z"/>
<path d="M482 4533 c-1 -7 -9 -13 -17 -13 -21 0 -21 -83 0 -100 23 -19 26 -9
22 61 -2 35 -4 58 -5 52z"/>
<path d="M4235 4510 c3 -5 10 -10 16 -10 5 0 9 5 9 10 0 6 -7 10 -16 10 -8 0
-12 -4 -9 -10z"/>
<path d="M2048 4463 c-3 -21 -7 -45 -9 -53 -6 -22 42 -26 58 -4 17 23 16 34
-2 34 -10 0 -15 10 -15 30 0 45 -27 39 -32 -7z"/>
<path d="M1690 4366 c0 -9 30 -14 35 -6 4 6 -3 10 -14 10 -12 0 -21 -2 -21 -4z"/>
<path d="M2862 4310 c0 -19 2 -27 5 -17 2 9 2 25 0 35 -3 9 -5 1 -5 -18z"/>
<path d="M617 4313 c-10 -40 -6 -81 8 -93 23 -19 26 -9 19 54 -7 55 -19 72
-27 39z"/>
<path d="M3104 4282 c-13 -8 -10 -40 5 -55 7 -7 10 1 9 26 -1 20 -2 37 -2 37
-1 0 -6 -4 -12 -8z"/>
<path d="M2853 4185 c2 -98 17 -98 17 0 0 41 -4 75 -9 75 -5 0 -8 -34 -8 -75z"/>
<path d="M2990 4200 c0 -11 5 -20 10 -20 6 0 10 9 10 20 0 11 -4 20 -10 20 -5
0 -10 -9 -10 -20z"/>
<path d="M3079 4143 c-14 -37 -2 -100 20 -106 25 -6 49 48 32 74 -6 10 -11 28
-11 39 0 29 -29 25 -41 -7z"/>
<path d="M2422 4111 c-7 -4 -37 -6 -65 -4 -59 4 -204 -36 -200 -55 2 -6 -7
-16 -20 -22 -21 -11 -21 -10 -3 4 19 16 19 16 -1 16 -12 0 -23 6 -26 13 -3 7
-9 0 -16 -15 -6 -16 -13 -28 -15 -28 -3 0 -3 7 1 16 4 12 0 14 -23 8 -58 -15
-135 -54 -128 -66 4 -6 3 -8 -4 -4 -12 7 -63 -13 -74 -29 -4 -5 -8 -6 -8 -2 0
4 -17 -4 -37 -18 -21 -14 -47 -25 -58 -25 -22 -1 -48 -14 -88 -46 -28 -22 -37
-40 -14 -28 6 3 -13 -19 -43 -49 -30 -31 -60 -56 -66 -57 -17 0 -47 -38 -39
-49 3 -7 0 -8 -9 -5 -15 6 -21 -9 -17 -42 1 -6 -7 -17 -16 -25 -15 -11 -16
-11 -5 1 17 20 15 35 -3 20 -8 -7 -15 -16 -15 -21 0 -5 -9 -19 -21 -31 -32
-35 -119 -188 -126 -220 -3 -15 -9 -28 -13 -28 -7 0 -13 -14 -56 -135 -24 -69
-43 -117 -54 -137 -6 -10 -10 -24 -10 -31 0 -8 -6 -27 -14 -43 -38 -80 -48
-105 -43 -110 3 -3 15 13 28 36 18 32 25 37 31 25 13 -22 -12 -97 -34 -103
-20 -5 -24 -18 -6 -24 7 -3 9 -11 3 -24 -9 -20 -11 -28 -14 -59 -3 -18 -4 -17
-12 5 -6 18 -7 8 -4 -35 2 -33 1 -54 -4 -47 -5 9 -11 6 -19 -10 -16 -31 -31
-117 -22 -123 9 -6 20 19 20 46 0 10 5 19 10 19 11 0 6 -33 -11 -80 -4 -14
-11 -38 -13 -54 -3 -16 -10 -32 -17 -36 -6 -4 -10 -16 -8 -26 1 -11 -1 -27 -4
-36 -18 -46 -20 -54 -23 -63 -52 -188 -68 -283 -53 -302 8 -9 8 -13 0 -13 -6
0 -11 -7 -11 -15 0 -18 19 -20 22 -2 0 6 2 23 4 37 5 46 22 115 23 94 1 -11 6
-25 12 -31 7 -7 8 -17 1 -29 -14 -26 -33 -157 -47 -313 -2 -30 -7 -57 -11 -60
-4 -3 -3 30 1 74 4 44 8 104 9 132 1 52 1 52 -13 25 -9 -15 -15 -29 -16 -32 0
-3 -5 -12 -10 -20 -11 -17 -14 -34 -24 -127 -2 -16 -3 -15 -11 2 -13 30 -11
75 5 120 8 21 10 42 6 45 -10 6 -7 67 4 93 4 9 5 23 2 31 -3 8 1 17 9 20 8 3
14 18 14 35 0 16 9 58 20 92 14 47 16 66 8 74 -8 7 -9 6 -4 -2 3 -6 1 -15 -6
-20 -22 -14 -48 -70 -42 -88 6 -15 -12 -63 -28 -75 -10 -8 -26 -264 -16 -274
16 -19 9 -65 -12 -76 -11 -6 -24 -29 -30 -53 -6 -23 -15 -51 -21 -62 -8 -18
-9 -17 -5 5 7 34 25 118 36 159 5 20 5 43 -1 59 -6 15 -8 41 -4 59 4 20 2 33
-5 33 -5 0 -10 11 -10 25 0 14 -6 36 -14 48 -10 16 -14 64 -14 190 l0 167 31
24 30 24 -11 129 c-6 70 -14 188 -18 261 -7 138 -15 162 -54 162 -28 0 -31
-24 -19 -139 11 -111 9 -427 -3 -408 -4 6 -10 8 -14 5 -7 -8 -2 -23 18 -50 10
-14 10 -22 1 -38 -8 -12 -9 -21 -3 -25 6 -3 10 -11 10 -17 0 -7 -5 -7 -14 1
-17 14 -27 -6 -19 -37 2 -11 -2 -31 -11 -43 -8 -13 -18 -43 -22 -66 -3 -24
-10 -40 -15 -37 -5 3 -9 -18 -9 -45 0 -70 -27 -96 -97 -94 -7 1 -11 -3 -8 -7
3 -5 1 -11 -5 -15 -5 -3 -10 -25 -10 -48 0 -24 -8 -56 -20 -75 -11 -18 -20
-39 -20 -48 0 -8 -7 -22 -15 -30 -8 -8 -12 -21 -9 -28 6 -16 -35 -68 -48 -60
-4 3 -8 -2 -8 -12 0 -17 -17 -34 -54 -55 -14 -8 -17 -8 -11 0 4 7 2 17 -3 24
-5 7 -13 28 -17 47 -4 19 -11 40 -15 45 -4 6 -10 25 -14 44 -6 35 -22 61 -37
61 -5 0 -9 -7 -9 -15 0 -8 -7 -15 -16 -15 -14 0 -16 -9 -12 -50 6 -59 -10 -92
-35 -72 -18 16 -28 -4 -33 -65 -3 -42 -24 -94 -50 -124 -12 -14 -11 -17 12
-28 23 -10 26 -16 20 -43 -8 -41 -10 -42 -36 -26 -18 11 -22 11 -31 -5 -6 -10
-22 -22 -36 -28 -24 -9 -25 -12 -18 -62 4 -28 6 -56 5 -62 -2 -5 -4 -268 -7
-583 l-4 -572 390 0 390 0 4 22 4 23 2 -22 c1 -22 5 -23 89 -23 l88 0 11 37
11 38 -4 -40 c-3 -30 -2 -35 5 -20 8 17 10 18 10 3 1 -21 50 -25 69 -6 9 9 12
9 12 0 0 -16 47 -15 53 1 4 9 6 9 6 0 1 -9 17 -13 45 -13 38 0 45 3 49 23 l4
22 2 -22 1 -23 993 0 c545 0 987 4 981 8 -6 4 -14 25 -17 47 l-6 40 15 -34
c18 -41 37 -61 58 -61 27 0 27 38 0 116 -22 61 -29 73 -36 58 -7 -16 -8 -16
-4 4 2 12 -6 55 -18 95 -32 101 -38 127 -27 127 5 0 11 -15 14 -33 6 -36 23
-88 73 -222 18 -50 36 -103 39 -119 5 -23 8 -27 16 -15 6 9 9 10 9 2 0 -8 15
-13 40 -13 22 0 40 2 40 5 0 6 -14 24 -42 56 -19 20 -24 34 -9 25 5 -4 4 7 -2
24 -6 17 -14 25 -18 18 -4 -6 -10 5 -14 23 -4 19 -14 42 -22 51 -9 10 -13 25
-9 33 10 26 -52 265 -63 246 -4 -5 -7 9 -8 32 -2 75 -16 151 -32 176 -11 18
-12 26 -4 28 7 3 9 11 7 18 -3 8 -2 20 3 27 8 13 13 -13 29 -142 4 -30 12 -64
17 -75 6 -11 10 -31 9 -45 -2 -20 -1 -22 8 -10 9 12 10 11 5 -7 -3 -12 1 -35
9 -52 18 -35 20 -45 6 -36 -5 3 -8 0 -5 -7 2 -7 13 -47 25 -88 11 -41 25 -84
30 -95 32 -75 53 -115 60 -115 4 0 11 -11 14 -25 4 -14 10 -25 15 -25 5 0 7
-9 4 -20 -6 -22 12 -28 20 -7 4 10 6 10 6 0 1 -8 14 -13 31 -13 17 0 30 5 30
13 0 8 4 7 10 -3 5 -8 10 -10 10 -4 0 5 -7 19 -15 30 -8 10 -15 28 -15 39 0
15 -3 17 -9 7 -6 -10 -10 -5 -14 16 -3 17 -20 46 -37 65 -30 34 -39 54 -20 42
15 -9 12 0 -11 39 -12 20 -25 33 -30 30 -5 -3 -18 15 -28 39 -11 25 -25 48
-31 52 -7 4 -6 -3 3 -16 8 -13 18 -35 22 -49 3 -14 -7 -4 -24 25 -30 49 -38
71 -23 62 4 -3 7 8 7 24 0 16 -4 29 -8 29 -5 0 -6 13 -2 28 6 27 -16 98 -27
87 -3 -3 -5 12 -4 34 0 22 4 37 7 35 9 -5 19 21 19 49 0 16 3 18 9 9 5 -8 7
17 6 60 -1 40 0 55 2 33 6 -56 20 -65 29 -19 4 22 16 50 27 64 l20 25 -8 -35
c-4 -19 -7 -40 -8 -47 0 -7 -3 -10 -7 -8 -10 6 -10 -78 1 -91 5 -6 6 -20 2
-30 -6 -17 -8 -16 -14 6 -5 17 -7 10 -6 -25 2 -37 6 -49 16 -47 8 2 17 -1 20
-6 8 -13 51 -25 51 -15 0 4 -9 23 -20 41 -22 36 -25 46 -10 37 6 -3 10 4 10
16 0 18 -2 19 -15 9 -12 -10 -15 -10 -15 4 0 9 5 16 10 16 6 0 10 15 9 33 -1
31 -1 31 -9 7 -12 -36 -1 77 12 118 12 41 23 32 36 -28 5 -25 10 -35 11 -22 1
13 5 21 10 18 9 -6 27 -147 23 -172 -1 -6 5 -24 13 -40 8 -16 15 -34 15 -41 0
-7 6 -16 14 -20 8 -5 19 -19 25 -33 7 -19 10 -21 10 -6 1 12 6 16 16 12 20 -7
20 22 -1 62 -8 18 -17 50 -19 72 -3 23 -11 47 -18 55 -8 8 -18 30 -21 51 -7
34 -8 35 -22 18 -14 -18 -15 -17 -8 6 4 14 7 38 5 54 -2 37 8 68 20 61 5 -4 9
18 9 50 0 40 -4 57 -15 61 -8 4 -13 10 -10 14 4 7 -6 52 -31 138 -3 12 -10 22
-15 22 -5 0 -7 12 -4 28 4 22 4 24 -4 7 -9 -19 -10 -19 -10 2 -1 12 -6 25 -12
29 -9 5 -10 -1 -5 -22 15 -61 24 -119 19 -126 -10 -18 -20 -5 -36 52 -11 36
-27 67 -42 79 -14 10 -25 27 -25 37 0 16 2 17 10 4 8 -12 10 -11 10 7 0 16 -4
21 -15 17 -10 -4 -15 0 -15 16 0 11 4 18 10 15 6 -3 7 1 4 9 -3 9 -11 16 -16
16 -6 0 -8 7 -5 15 4 8 2 17 -4 20 -6 4 -7 -22 -3 -74 4 -45 5 -81 2 -81 -3 0
-15 9 -28 20 -33 29 -47 25 -42 -10 3 -22 8 -28 16 -21 7 6 18 6 26 1 8 -5 17
-7 21 -4 4 2 9 -7 11 -20 5 -24 4 -24 -18 -9 -14 9 -34 13 -47 9 -20 -5 -23
-2 -24 27 -1 54 -29 107 -54 107 -29 0 -21 7 15 14 42 8 68 35 61 64 -4 15 -2
21 4 17 6 -3 4 13 -4 36 -8 22 -12 46 -9 51 4 6 0 14 -7 19 -12 8 -12 10 0 18
10 6 11 14 3 26 -9 17 -10 17 -16 -2 -4 -12 -13 -24 -21 -27 -10 -3 -15 -20
-15 -46 0 -33 -3 -40 -20 -40 -20 0 -44 32 -33 44 3 3 1 6 -5 6 -6 0 -20 10
-32 22 -11 12 -20 17 -20 12 0 -6 5 -15 12 -22 9 -9 7 -12 -11 -12 -12 0 -20
4 -16 9 3 6 -3 15 -14 20 -14 8 -20 7 -24 -3 -4 -10 0 -12 14 -9 11 3 19 2 17
-3 -2 -5 7 -20 20 -34 22 -24 22 -24 22 -2 0 31 18 27 26 -5 4 -15 13 -34 21
-41 7 -7 13 -25 12 -40 -1 -25 -2 -24 -11 8 -8 29 -11 32 -20 17 -13 -24 -7
-69 12 -85 13 -12 12 -13 -5 -7 -16 5 -18 4 -7 -6 16 -17 15 -29 -3 -29 -8 0
-15 -7 -15 -15 0 -8 -5 -15 -10 -15 -13 0 -28 -37 -34 -87 -5 -43 -24 -98 -25
-72 -1 18 -31 36 -31 19 0 -6 -5 -10 -11 -10 -8 0 -8 4 0 13 8 10 7 17 -1 25
-8 8 -5 10 14 7 21 -4 27 0 30 20 3 13 0 26 -6 29 -7 3 -7 5 1 5 9 1 9 8 0 34
l-12 32 -6 -35 -6 -35 -2 40 c-1 22 -5 36 -9 30 -14 -20 -44 -16 -61 7 -8 13
-16 26 -17 31 -1 4 -2 10 -3 15 -1 4 -6 0 -12 -8 -8 -12 -9 -10 -4 8 4 15 2
22 -7 22 -9 0 -9 3 2 10 12 7 20 -1 37 -40 24 -54 33 -59 54 -33 8 9 9 14 3
10 -11 -6 -44 26 -44 43 0 6 -5 10 -11 10 -6 0 -9 6 -6 14 6 15 -21 15 -57 0
-14 -5 -17 -4 -11 5 4 8 2 17 -6 22 -10 6 -16 1 -20 -19 -5 -22 -7 -18 -8 18
l-1 45 -21 -25 c-17 -21 -17 -18 4 20 17 34 22 56 19 89 -4 40 -3 43 17 36 19
-6 20 -4 11 21 -6 15 -8 29 -5 33 9 8 25 -21 18 -34 -4 -5 3 -2 15 8 20 18 20
18 15 -2 -3 -13 -1 -21 6 -21 7 0 10 4 6 9 -3 5 -1 12 5 16 6 4 7 11 4 17 -4
6 -2 8 4 5 5 -4 8 -16 5 -27 -3 -12 0 -20 6 -20 7 0 9 5 6 10 -10 16 5 33 19
21 9 -8 13 -7 13 4 0 8 -4 12 -9 9 -4 -3 -8 0 -8 6 0 6 -9 20 -20 32 -11 12
-20 27 -20 32 0 8 3 8 8 0 4 -6 16 -14 27 -17 19 -7 19 -6 1 7 -10 8 -15 20
-11 26 6 9 2 9 -14 1 -21 -12 -27 -61 -6 -61 5 0 3 -4 -5 -9 -8 -6 -18 -7 -22
-5 -4 3 -8 0 -8 -6 0 -6 -4 -8 -10 -5 -5 3 -10 14 -10 23 0 10 3 13 8 7 4 -5
14 -11 22 -13 10 -1 9 2 -4 13 -11 8 -22 15 -25 15 -8 0 -31 -51 -31 -69 0
-11 -3 -12 -11 -4 -8 8 -8 17 1 33 6 12 9 24 6 28 -3 3 -6 1 -6 -4 0 -6 -13
-10 -29 -9 -29 0 -29 0 -13 27 8 15 19 25 22 23 4 -2 7 1 7 8 0 7 4 21 9 32 7
19 7 19 -10 3 -9 -10 -23 -18 -30 -18 -7 0 -17 -12 -23 -27 -11 -27 -11 -27
-7 7 4 30 3 32 -5 13 -18 -41 -38 -28 -37 22 2 45 16 77 16 37 0 -26 15 -29
24 -6 9 22 8 26 -5 18 -13 -8 -6 44 13 105 8 24 13 30 19 20 6 -10 9 -6 9 13
0 17 7 29 19 33 59 18 69 183 14 218 -7 4 -13 12 -13 16 0 13 -51 63 -92 91
-21 14 -38 28 -38 33 0 4 -10 7 -23 7 -29 0 -33 -33 -10 -87 9 -22 16 -69 17
-111 l2 -74 -18 41 c-9 23 -18 41 -20 41 -2 0 -4 -12 -5 -27 0 -16 2 -21 7
-13 5 7 7 1 7 -16 0 -16 -2 -23 -4 -16 -7 18 -33 15 -33 -5 0 -13 -3 -13 -18
5 -10 11 -30 24 -45 27 -23 6 -26 11 -21 34 4 14 3 22 -2 18 -4 -4 -14 3 -22
15 -7 13 -11 15 -8 6 4 -14 1 -16 -19 -8 -23 9 -37 6 -128 -27 -50 -18 -67
-17 -67 5 0 15 2 15 11 2 9 -13 10 -13 6 0 -2 8 -11 14 -21 12 -9 -2 -16 4
-16 12 0 9 -11 18 -24 22 -13 3 -28 16 -35 30 -6 13 -17 24 -26 24 -8 0 -15 5
-15 10 0 6 -9 10 -19 10 -11 0 -22 4 -25 9 -3 5 -31 23 -61 40 -47 27 -55 35
-55 61 0 19 -5 30 -14 30 -13 0 -111 -36 -132 -48 -42 -26 -94 -65 -121 -91
-17 -17 -33 -27 -35 -22 -1 6 -13 12 -26 14 -12 2 -28 9 -34 15 -7 7 -36 12
-65 12 -41 0 -55 -4 -60 -17 -10 -24 -7 -74 6 -106 16 -41 14 -65 -9 -77 -11
-6 -20 -7 -20 -3 0 4 -4 1 -9 -6 -8 -12 -11 -8 -16 15 -19 81 -27 104 -36 104
-6 0 -7 5 -4 10 3 6 2 10 -2 10 -12 0 -3 72 10 88 6 8 12 32 13 55 2 23 10 56
18 72 9 17 16 39 16 50 0 11 11 38 24 60 14 22 42 72 64 110 61 107 83 129
121 120 38 -8 33 -24 -5 -17 -18 3 -25 1 -20 -6 3 -6 31 -14 62 -18 31 -3 51
-10 44 -14 -20 -12 9 -17 92 -15 43 1 75 -2 72 -7 -3 -4 -31 -8 -62 -9 -55 -1
-56 -1 -22 -11 24 -7 46 -6 71 1 50 15 60 13 24 -4 l-30 -15 40 5 c87 11 179
13 202 4 34 -13 88 39 79 76 -4 14 -3 43 0 65 5 33 13 44 41 58 30 16 32 20
20 36 -8 11 -28 18 -56 20 -39 2 -46 7 -72 45 -16 23 -27 46 -25 50 3 4 -11
13 -30 20 -18 7 -34 16 -34 21 0 8 -48 25 -62 22 -5 -1 -8 5 -8 13 0 18 -37
38 -56 31 -8 -3 -14 -1 -14 3 0 5 -19 19 -43 30 -48 23 -107 28 -107 9 0 -9
-4 -8 -10 2 -6 10 -10 11 -10 3 0 -7 -9 -13 -20 -13 -12 0 -20 -7 -20 -16 0
-9 -6 -14 -13 -11 -8 3 -14 -1 -14 -9 0 -8 5 -14 11 -15 6 0 0 -5 -13 -10 -27
-11 -37 -6 -25 13 5 7 7 22 5 32 -2 15 2 18 18 13 14 -3 21 0 21 10 0 8 -5 11
-12 7 -8 -5 -9 5 -4 36 4 24 10 48 14 54 4 6 7 18 7 26 1 8 4 35 9 58 6 35 15
48 42 64 19 11 34 21 34 23 0 2 -8 11 -17 21 -16 15 -16 17 3 31 11 8 18 23
16 36 -3 27 36 102 75 143 15 16 28 34 28 39 1 6 6 9 13 7 7 -1 12 3 12 8 0
37 168 142 292 184 38 13 70 27 71 32 1 5 13 10 27 11 14 1 54 9 90 18 68 18
189 16 258 -4 37 -11 40 -5 15 42 -14 28 -14 31 0 19 9 -7 19 -26 22 -42 8
-38 21 -46 74 -49 28 -2 56 -12 75 -26 17 -12 50 -32 73 -44 49 -24 141 -126
178 -196 91 -171 119 -234 135 -302 6 -29 16 -53 21 -53 13 0 11 24 -7 93 -11
45 -12 62 -4 67 9 5 9 9 1 14 -6 4 -11 12 -11 18 0 7 6 6 15 -2 13 -10 15 -9
15 9 0 11 -4 21 -8 21 -5 0 -14 17 -20 38 -7 23 -28 54 -53 75 -22 20 -35 37
-28 37 7 0 2 11 -11 25 -31 33 -45 32 -23 -2 14 -21 14 -25 3 -21 -8 2 -23 25
-32 49 -9 24 -22 43 -28 41 -8 -2 -11 5 -7 17 3 13 -1 21 -14 24 -13 3 -17 11
-13 21 4 10 -1 18 -12 22 -40 13 -91 41 -136 74 -26 19 -58 43 -72 53 -14 9
-23 23 -20 30 3 8 -6 18 -20 25 -22 10 -24 9 -19 -5 4 -11 3 -14 -5 -9 -7 4
-12 13 -12 21 0 8 -5 17 -12 21 -7 4 -8 3 -4 -4 4 -7 2 -12 -3 -12 -6 0 -11 7
-11 15 0 14 -12 20 -33 16 -5 -1 -5 4 -1 10 4 8 -2 9 -22 6 -16 -3 -49 0 -74
6 -41 11 -45 14 -42 40 3 24 0 27 -25 26 -15 -1 -21 -3 -11 -6 28 -7 30 -32 3
-39 -14 -3 -25 -10 -25 -15 0 -5 -7 -5 -17 -2 -11 4 -14 3 -9 -6 6 -9 2 -12
-10 -10 -11 2 -34 -5 -52 -15 -19 -9 -41 -15 -50 -11 -14 5 -10 10 18 25 41
23 54 25 44 8 -4 -7 -3 -9 1 -5 5 4 10 13 11 20 2 14 -142 17 -166 3 -12 -7
-13 -7 -2 5 9 10 36 14 87 14 41 -1 69 3 62 7 -7 4 -7 8 -1 8 5 0 15 -5 20
-10 12 -12 47 -2 38 11 -3 5 3 6 12 2 12 -4 15 -3 10 5 -8 14 -26 15 -44 3z
m-237 -81 c-3 -5 -12 -10 -18 -10 -7 0 -6 4 3 10 19 12 23 12 15 0z m355 -30
c8 -5 11 -10 5 -10 -5 0 -17 5 -25 10 -8 5 -10 10 -5 10 6 0 17 -5 25 -10z
m-550 -24 c0 -3 -4 -8 -10 -11 -5 -3 -10 -1 -10 4 0 6 5 11 10 11 6 0 10 -2
10 -4z m-50 -89 c0 -2 -12 -14 -27 -28 l-28 -24 24 28 c23 25 31 32 31 24z
m129 -11 c-3 -3 -22 -16 -44 -31 l-40 -25 35 30 c19 16 39 30 44 30 5 0 7 -2
5 -4z m-259 -13 c0 -5 -15 -16 -33 -26 l-32 -17 28 25 c30 26 37 30 37 18z
m-120 -17 c0 -2 -7 -7 -16 -10 -8 -3 -12 -2 -9 4 6 10 25 14 25 6z m180 -22
c0 -8 -19 -13 -24 -6 -3 5 1 9 9 9 8 0 15 -2 15 -3z m-220 -67 c0 -2 -15 -16
-32 -33 l-33 -29 29 33 c28 30 36 37 36 29z m160 -1 c0 -2 -8 -10 -17 -17 -16
-13 -17 -12 -4 4 13 16 21 21 21 13z m-70 -70 c0 -2 -8 -10 -17 -17 -16 -13
-17 -12 -4 4 13 16 21 21 21 13z m103 -722 c51 -26 78 -54 64 -68 -8 -10 -23
-10 -66 1 -72 16 -100 16 -134 -2 l-28 -14 3 31 c6 57 94 86 161 52z m-233
-124 c6 -11 7 -20 2 -20 -10 0 -32 21 -32 32 0 16 19 8 30 -12z m358 -89 c2
-6 12 -11 23 -11 10 0 19 -4 19 -9 0 -38 -113 -48 -149 -12 -11 11 -27 21 -34
21 -7 0 -21 6 -31 13 -14 10 -2 12 75 11 59 -1 95 -6 97 -13z m82 -45 c0 -2
-11 -6 -25 -8 -14 -3 -25 -1 -25 3 0 5 11 9 25 9 14 0 25 -2 25 -4z m-45 -56
c-3 -5 -15 -10 -26 -10 -11 0 -17 5 -14 10 3 6 15 10 26 10 11 0 17 -4 14 -10z
m-948 -262 c-3 -8 -6 -5 -6 6 -1 11 2 17 5 13 3 -3 4 -12 1 -19z m-47 -172 c0
-23 -16 -27 -17 -5 -1 10 2 19 8 19 5 0 9 -6 9 -14z m-23 -68 c-3 -8 -6 -5 -6
6 -1 11 2 17 5 13 3 -3 4 -12 1 -19z m30 0 c-3 -8 -6 -5 -6 6 -1 11 2 17 5 13
3 -3 4 -12 1 -19z m570 -50 c-3 -8 -6 -5 -6 6 -1 11 2 17 5 13 3 -3 4 -12 1
-19z m50 -64 c0 -36 -5 -76 -11 -90 -13 -24 -13 -23 -24 15 -13 43 -15 67 -3
36 6 -15 10 -3 16 43 4 34 10 62 14 62 3 0 7 -30 8 -66z m-30 24 c-3 -7 -5 -2
-5 12 0 14 2 19 5 13 2 -7 2 -19 0 -25z m-530 -20 c-3 -8 -6 -5 -6 6 -1 11 2
17 5 13 3 -3 4 -12 1 -19z m-10 -40 c-3 -8 -6 -5 -6 6 -1 11 2 17 5 13 3 -3 4
-12 1 -19z m1152 -9 c5 8 14 6 30 -8 26 -22 13 -36 -25 -27 -17 5 -24 13 -23
29 0 13 3 16 6 8 4 -9 7 -10 12 -2z m-1159 -44 c0 -5 -5 -3 -10 5 -5 8 -10 20
-10 25 0 6 5 3 10 -5 5 -8 10 -19 10 -25z m1407 3 c-3 -8 -6 -5 -6 6 -1 11 2
17 5 13 3 -3 4 -12 1 -19z m-792 -35 l18 -28 -21 19 c-12 11 -22 23 -22 28 0
14 7 9 25 -19z m349 12 c12 -12 20 -13 41 -3 22 10 27 9 39 -7 13 -18 14 -18
31 -1 10 9 24 15 32 12 8 -3 18 -6 23 -6 5 0 12 -9 15 -20 6 -19 8 -19 28 -5
28 20 54 19 65 -1 8 -15 11 -15 36 1 25 17 27 17 47 -1 12 -11 23 -14 27 -9
14 19 42 13 42 -9 1 -19 2 -19 11 -3 5 9 14 17 19 17 15 0 11 -32 -5 -54 -8
-11 -15 -30 -15 -43 0 -23 1 -23 36 -8 20 8 49 15 64 15 32 0 68 -34 49 -46
-8 -5 -10 -3 -4 6 6 9 4 11 -5 5 -8 -5 -11 -4 -6 3 3 6 2 13 -3 16 -14 9 -7
-18 12 -47 9 -15 17 -32 17 -38 0 -8 4 -8 15 1 13 11 14 10 9 -6 -4 -10 -12
-25 -17 -32 -7 -9 -7 -16 1 -24 14 -14 35 0 28 19 -3 8 -2 11 3 8 5 -3 11 5
13 17 3 21 4 21 9 -4 4 -15 2 -25 -2 -22 -5 3 -9 1 -9 -5 0 -5 14 -12 30 -16
17 -4 28 -11 24 -16 -3 -5 -15 -7 -27 -3 -20 6 -20 5 -8 -10 8 -9 23 -15 35
-14 13 2 20 -2 18 -9 -1 -7 3 -13 10 -13 6 0 8 -3 5 -6 -4 -4 -14 -1 -23 7
-16 13 -17 12 -12 -8 4 -13 2 -23 -5 -23 -5 0 -22 -14 -37 -30 -24 -27 -27
-36 -20 -65 9 -41 4 -46 -10 -10 -5 14 -15 25 -21 25 -6 0 -9 -7 -5 -15 3 -10
-3 -17 -19 -21 -14 -3 -25 -12 -25 -20 0 -8 -6 -14 -12 -15 -10 0 -10 -2 0 -6
6 -2 12 -14 12 -25 0 -18 2 -19 17 -7 15 13 15 12 4 -9 -12 -22 -11 -23 7 -18
15 5 21 1 25 -16 8 -28 -3 -41 -23 -27 -13 9 -12 10 3 5 19 -6 20 -5 11 18 -5
12 -10 13 -25 5 -16 -8 -19 -6 -19 10 0 10 -9 29 -19 42 -21 26 -19 28 -37
-28 -4 -15 -6 -15 -14 -3 -13 20 -13 4 0 -20 6 -12 7 -21 0 -25 -5 -3 -7 -12
-4 -19 3 -8 1 -17 -4 -20 -6 -3 -8 -15 -5 -26 3 -11 0 -20 -6 -20 -6 0 -11 5
-11 10 0 6 -5 10 -11 10 -8 0 -8 -4 0 -14 15 -18 53 -17 46 2 -2 7 0 10 5 7 6
-3 10 -14 10 -23 0 -15 32 -52 44 -52 2 0 4 11 4 25 0 13 -5 22 -10 19 -6 -4
-3 5 6 18 14 21 14 27 3 37 -8 6 -17 8 -20 4 -4 -3 -7 1 -7 10 0 22 -8 21 -28
-1 -10 -10 -13 -13 -9 -6 4 7 6 18 5 25 -5 23 35 10 58 -19 12 -15 20 -31 17
-38 -2 -6 3 -11 12 -11 19 0 19 7 -2 36 -9 14 -11 21 -5 17 15 -9 45 -66 36
-66 -13 0 31 -42 58 -56 15 -8 29 -15 30 -16 11 -6 48 27 48 43 0 11 5 17 10
14 6 -3 10 3 10 15 0 13 -4 18 -11 15 -6 -4 -5 3 3 14 11 18 11 23 -2 32 -11
8 -12 12 -2 16 6 2 12 14 11 26 0 21 -1 21 -9 2 -9 -20 -15 -7 -11 23 1 6 -3
20 -8 30 -10 16 -10 16 -11 -1 0 -10 -4 -15 -10 -12 -15 9 -12 35 5 35 8 0 12
6 9 14 -3 7 2 16 12 20 14 5 15 4 5 -8 -8 -10 -9 -16 -1 -21 6 -3 8 -11 4 -16
-3 -5 2 -22 12 -37 10 -15 17 -33 16 -41 -2 -7 1 -10 7 -7 9 6 24 -9 27 -29 1
-5 5 -19 9 -30 4 -11 -3 -5 -15 13 -29 42 -40 41 -29 -5 4 -21 6 -39 4 -42 -3
-2 3 -10 13 -18 15 -13 15 -13 -7 -7 -19 5 -23 3 -18 -10 4 -9 1 -15 -6 -13
-7 1 -11 -4 -10 -10 2 -7 -3 -13 -10 -13 -9 0 -8 -3 2 -9 11 -7 10 -13 -3 -34
-10 -15 -13 -28 -7 -31 5 -3 11 0 14 6 2 7 3 -2 2 -20 -1 -18 -5 -36 -9 -40
-4 -4 -6 -2 -4 3 5 16 -23 75 -33 69 -5 -3 -6 3 -2 12 4 11 3 15 -5 11 -6 -4
-13 1 -15 10 -3 10 -5 2 -6 -17 -1 -19 -9 -44 -18 -55 l-16 -20 8 20 c15 38
18 78 6 71 -7 -4 -9 -2 -5 7 3 8 -3 21 -13 29 -25 18 -45 56 -38 71 4 7 -1 3
-9 -7 -11 -13 -16 -15 -16 -6 0 7 -3 10 -6 7 -7 -6 23 -77 32 -77 3 0 2 5 -2
12 -5 7 -3 8 5 3 7 -4 11 -16 8 -26 -3 -11 -1 -19 4 -19 5 0 9 -4 9 -8 0 -5
-7 -9 -16 -9 -10 0 -14 7 -11 18 3 10 -1 20 -8 23 -9 3 -13 -6 -12 -30 1 -20
4 -29 9 -21 5 7 8 0 8 -18 l0 -30 -20 30 c-11 17 -20 25 -20 18 0 -7 -7 -10
-17 -6 -15 6 -15 7 2 13 10 4 19 18 21 33 1 15 -2 25 -7 22 -5 -4 -9 -2 -9 2
0 5 -12 10 -27 11 l-28 2 28 -19 29 -18 -26 0 c-15 0 -23 4 -19 10 3 6 1 7 -6
3 -14 -9 -5 -26 14 -26 7 0 11 -7 9 -17 -5 -21 24 -58 52 -67 11 -3 7 -4 -8
-2 -16 2 -28 0 -28 -4 0 -5 -14 -7 -30 -6 -18 1 -29 -2 -26 -8 2 -6 8 -10 14
-9 15 4 3 -27 -20 -51 -13 -15 -15 -23 -7 -38 6 -11 8 -22 6 -25 -3 -2 -8 5
-12 16 -8 27 -20 27 -22 1 -1 -11 2 -20 8 -20 5 0 9 -5 9 -11 0 -5 -4 -7 -10
-4 -5 3 -10 1 -10 -5 0 -6 -5 -8 -10 -5 -6 4 -7 12 -4 18 5 9 4 9 -6 0 -16
-14 -22 -76 -7 -66 5 3 7 1 4 -5 -4 -5 -3 -21 2 -34 9 -21 11 -19 15 12 0 6 7
15 15 19 7 5 11 14 7 19 -9 15 15 52 33 52 11 0 10 -4 -4 -13 -20 -15 -5 -34
17 -21 7 4 8 3 4 -4 -4 -6 -2 -21 4 -32 8 -16 8 -18 -4 -14 -9 3 -14 11 -13
16 1 6 -4 13 -12 16 -8 3 -11 0 -7 -6 4 -6 -2 -20 -14 -32 -11 -11 -17 -20
-13 -20 4 0 -3 -9 -15 -20 -12 -11 -25 -32 -28 -45 -3 -14 -10 -22 -16 -19 -5
3 -4 12 4 22 11 13 11 14 -2 10 -8 -2 -18 -22 -21 -44 -6 -39 -12 -30 -10 16
0 14 -2 19 -5 13 -3 -7 -13 -13 -22 -13 -15 0 -15 2 -2 10 13 8 12 10 -2 10
-10 0 -18 -4 -18 -9 0 -5 -11 -12 -25 -15 -26 -7 -35 -35 -38 -118 -1 -23 -8
-49 -14 -56 -7 -7 -13 -18 -13 -23 0 -6 6 -7 13 -3 10 6 10 4 0 -7 -15 -16
-17 -33 -3 -24 12 8 1 -58 -12 -66 -5 -3 -6 -14 -2 -25 3 -11 2 -15 -3 -9 -4
6 -19 11 -33 13 -53 6 -76 54 -146 299 -9 35 -20 63 -24 63 -3 0 -15 7 -26 15
-18 14 -17 14 9 5 23 -8 27 -7 27 9 0 10 -3 21 -7 25 -4 3 -8 14 -9 24 -1 9
-6 35 -10 56 -6 31 -4 37 6 31 8 -5 11 -4 6 3 -3 6 -2 22 4 37 7 17 7 24 0 20
-6 -3 -10 2 -10 12 0 15 -2 15 -9 4 -6 -9 -6 -22 -1 -31 8 -14 5 -16 -18 -12
-18 4 -22 7 -12 11 22 9 24 39 3 44 -10 2 -8 3 5 2 19 -2 21 1 16 19 -6 21 -6
21 9 1 11 -14 15 -16 15 -5 -2 35 3 51 13 44 6 -3 15 0 20 7 13 21 11 33 -5
20 -10 -9 -16 -8 -26 4 -7 9 -8 15 -2 15 6 0 12 -5 14 -11 2 -6 13 9 25 33 12
23 31 49 42 55 12 8 18 19 15 28 -4 8 -1 15 6 15 7 0 10 7 6 15 -3 8 -1 15 4
15 11 0 8 35 -3 46 -3 4 -5 -3 -2 -14 2 -11 -3 -26 -10 -32 -8 -6 -17 -25 -21
-42 l-6 -31 -18 23 c-18 23 -17 25 3 51 12 14 24 25 27 23 3 -1 7 7 7 19 2 17
0 19 -7 7 -8 -12 -10 -11 -10 6 0 12 -7 25 -16 28 -15 6 -15 4 -3 -10 13 -16
12 -16 -9 -5 -12 6 -26 10 -31 7 -5 -3 -8 2 -7 11 0 9 -5 18 -13 21 -8 2 -11
0 -7 -6 3 -5 -1 -13 -10 -16 -12 -5 -14 -1 -8 16 6 20 5 21 -10 9 -14 -12 -16
-11 -16 8 0 12 -4 19 -10 16 -5 -3 -11 2 -12 12 0 10 -4 -2 -7 -26 -3 -25 -12
-46 -18 -49 -15 -4 -17 30 -3 44 12 12 -17 57 -32 48 -6 -4 -8 2 -3 17 5 19 4
21 -4 9 -6 -8 -11 -28 -11 -45 0 -16 -5 -37 -11 -45 -8 -11 -9 -5 -4 25 3 22
8 48 11 57 4 13 1 16 -10 12 -9 -3 -13 -10 -10 -15 3 -5 -3 -6 -12 -2 -12 4
-15 3 -10 -6 5 -8 3 -11 -5 -9 -20 4 -59 -33 -59 -55 0 -10 -9 -30 -20 -44
-23 -29 -27 -18 -5 11 8 11 15 30 15 41 0 26 20 45 78 74 23 12 42 26 42 31 0
13 -7 13 -33 -2 -21 -11 -21 -10 -7 8 8 10 19 22 25 26 6 5 5 12 -3 20 -11 11
-16 10 -26 -4 -14 -19 -32 -25 -21 -7 16 24 12 62 -6 66 -21 6 -34 33 -16 33
8 0 7 4 -3 9 -8 6 -17 8 -20 6 -3 -2 -6 5 -6 15 0 10 6 16 13 13 7 -3 13 -1
13 4 0 15 -21 32 -34 27 -6 -2 -11 8 -12 26 -1 19 4 30 12 30 8 0 14 9 14 21
0 22 -22 49 -40 49 -14 0 -8 22 6 27 11 4 36 -42 51 -92 6 -23 15 -31 36 -33
16 -2 27 -9 27 -19 0 -9 6 -13 14 -10 8 3 20 -1 27 -9 10 -13 10 -20 0 -36
-12 -19 -11 -20 8 -15 11 2 22 0 24 -7 2 -6 3 -2 1 9 -2 15 2 21 16 21 23 0
25 -7 8 -24 -8 -8 -9 -12 -1 -12 6 0 9 -9 5 -22 -4 -15 -2 -19 7 -13 7 4 11
16 8 26 -3 11 -1 19 4 19 5 0 9 -4 9 -10 0 -5 7 -7 16 -3 13 5 13 7 2 14 -14
9 -4 12 57 13 24 1 29 5 27 21 -2 11 -8 22 -13 23 -22 8 13 28 41 24 29 -4 37
-25 12 -28 -7 -1 -16 -2 -22 -3 -5 0 -10 -6 -10 -12 0 -8 4 -8 13 -1 9 7 17 3
31 -16 20 -27 20 -27 0 -9 -21 17 -35 14 -30 -6 2 -7 1 -9 -1 -4 -3 4 -9 7
-14 7 -6 0 -7 -4 -4 -10 3 -5 0 -7 -8 -4 -19 7 -67 -13 -67 -28 0 -9 3 -9 8
-2 11 17 42 25 43 11 0 -9 2 -9 5 0 3 6 16 9 30 7 13 -2 24 0 24 5 0 5 9 9 21
8 14 -1 22 -10 26 -29 l5 -28 19 24 c23 30 26 54 3 31 -15 -14 -17 -14 -30 2
-17 22 -18 37 -2 27 7 -4 8 -3 4 5 -4 6 -12 9 -17 6 -5 -4 -9 1 -9 10 0 10 6
15 13 12 8 -3 14 4 15 20 1 16 -2 23 -11 20 -6 -2 -25 7 -40 19 -16 13 -34 24
-41 24 -20 0 -89 77 -76 85 6 4 18 4 26 1 8 -3 13 -2 10 2 -2 4 3 22 11 40 12
25 13 36 4 45 -8 8 -11 7 -11 -6 0 -15 -11 -22 -32 -18 -5 0 -8 -4 -8 -10 0
-5 -5 -7 -10 -4 -8 5 -7 11 0 20 7 8 9 19 5 25 -8 13 3 50 15 50 5 0 15 -7 24
-15z m-77 -27 c-3 -7 -5 -2 -5 12 0 14 2 19 5 13 2 -7 2 -19 0 -25z m-900 -40
c-2 -13 -4 -3 -4 22 0 25 2 35 4 23 2 -13 2 -33 0 -45z m130 15 c-3 -10 -5 -2
-5 17 0 19 2 27 5 18 2 -10 2 -26 0 -35z m480 -30 c-3 -10 -5 -2 -5 17 0 19 2
27 5 18 2 -10 2 -26 0 -35z m-1080 19 c-10 -10 -17 -31 -17 -45 0 -15 -4 -27
-10 -27 -5 0 -10 20 -10 45 0 42 2 45 27 45 25 0 25 -1 10 -18z m590 -54 c-3
-7 -5 -2 -5 12 0 14 2 19 5 13 2 -7 2 -19 0 -25z m-140 -10 c-3 -8 -6 -5 -6 6
-1 11 2 17 5 13 3 -3 4 -12 1 -19z m628 13 c3 -5 2 -12 -3 -15 -5 -3 -9 1 -9
9 0 17 3 19 12 6z m245 -56 c0 -8 12 -18 27 -21 26 -7 26 -7 5 -15 -32 -12
-47 -3 -49 31 -1 18 2 28 7 25 6 -4 10 -13 10 -20z m-750 -67 c-7 -28 -8 -24
-8 27 0 46 2 54 8 33 4 -14 4 -41 0 -60z m350 57 c0 -8 -4 -15 -10 -15 -5 0
-7 7 -4 15 4 8 8 15 10 15 2 0 4 -7 4 -15z m117 -20 c-7 -13 -14 -20 -15 -14
-2 5 2 16 8 24 18 21 20 18 7 -10z m-500 -17 c-3 -7 -5 -2 -5 12 0 14 2 19 5
13 2 -7 2 -19 0 -25z m510 -10 c-3 -8 -6 -5 -6 6 -1 11 2 17 5 13 3 -3 4 -12
1 -19z m361 0 c7 -7 12 -21 12 -32 -1 -18 -2 -19 -10 -5 -5 9 -21 20 -35 23
-14 4 -25 11 -25 16 0 14 44 12 58 -2z m-88 -6 c0 -4 -9 -13 -20 -20 -23 -14
-26 -8 -7 13 13 16 27 19 27 7z m-780 -44 c0 -5 -4 -8 -10 -8 -5 0 -10 10 -10
23 0 18 2 19 10 7 5 -8 10 -18 10 -22z m920 12 c0 -5 -2 -10 -4 -10 -3 0 -8 5
-11 10 -3 6 -1 10 4 10 6 0 11 -4 11 -10z m-1173 -42 c-3 -8 -6 -5 -6 6 -1 11
2 17 5 13 3 -3 4 -12 1 -19z m233 -65 c-9 -15 -10 -12 -6 16 3 18 7 41 8 50 0
9 3 1 5 -16 2 -18 -1 -41 -7 -50z m-73 45 c-3 -8 -6 -5 -6 6 -1 11 2 17 5 13
3 -3 4 -12 1 -19z m1758 -8 c3 -5 2 -10 -4 -10 -5 0 -13 5 -16 10 -3 6 -2 10
4 10 5 0 13 -4 16 -10z m-1917 -44 c1 -24 2 -48 4 -52 1 -5 -2 -52 -7 -104 -7
-79 -10 -88 -15 -55 -3 22 -2 54 2 70 5 17 8 57 8 90 -2 75 -1 95 4 95 2 0 4
-20 4 -44z m62 -15 c-7 -28 -16 -51 -20 -51 -5 0 -5 14 0 31 5 18 7 36 3 42
-3 6 -1 7 5 3 8 -5 12 1 12 15 0 12 3 20 6 16 3 -3 1 -29 -6 -56z m216 -53 c0
-55 -2 -75 -8 -58 -4 14 -6 -20 -4 -82 1 -59 0 -112 -4 -118 -12 -19 -20 135
-11 192 5 29 12 74 16 101 3 26 7 47 9 47 1 0 3 -37 2 -82z m439 44 c-1 -24
-14 -42 -28 -42 -7 0 -4 6 5 14 10 7 15 16 12 19 -3 3 -3 10 1 16 9 15 12 14
10 -7z m-838 -14 c-3 -8 -6 -5 -6 6 -1 11 2 17 5 13 3 -3 4 -12 1 -19z m2048
12 c3 -5 1 -10 -4 -10 -6 0 -11 5 -11 10 0 6 2 10 4 10 3 0 8 -4 11 -10z
m-1688 -97 c-2 -21 -4 -6 -4 32 0 39 2 55 4 38 2 -18 2 -50 0 -70z m688 67
c-3 -5 -11 -10 -16 -10 -6 0 -7 5 -4 10 3 6 11 10 16 10 6 0 7 -4 4 -10z m966
-43 c-10 -9 -11 -8 -5 6 3 10 9 15 12 12 3 -3 0 -11 -7 -18z m464 -8 c5 -21 3
-34 -5 -39 -7 -4 -9 -13 -6 -19 4 -6 -1 -19 -10 -29 -17 -16 -17 -16 -11 0 3
10 0 24 -9 33 -9 9 -11 15 -4 15 7 0 9 8 5 20 -4 11 -2 20 4 20 6 0 11 7 11
15 0 27 18 16 25 -16z m-2334 -35 c-5 -21 -9 -30 -10 -19 -1 24 10 67 15 62 3
-2 0 -22 -5 -43z m858 30 c3 3 15 -10 25 -27 l18 -32 -31 29 c-17 17 -31 35
-30 40 0 6 3 5 6 -2 2 -6 8 -10 12 -8z m-662 -16 c-3 -8 -6 -5 -6 6 -1 11 2
17 5 13 3 -3 4 -12 1 -19z m633 7 c7 -9 8 -15 2 -15 -5 0 -12 7 -16 15 -3 8
-4 15 -2 15 2 0 9 -7 16 -15z m-7 -38 c-7 -11 -23 2 -23 19 0 12 2 12 14 2 8
-7 12 -16 9 -21z m-666 -24 c-3 -10 -5 -4 -5 12 0 17 2 24 5 18 2 -7 2 -21 0
-30z m462 -23 c0 -9 -4 -8 -9 5 -5 11 -9 27 -9 35 0 9 4 8 9 -5 5 -11 9 -27 9
-35z m-422 -7 c-3 -10 -5 -4 -5 12 0 17 2 24 5 18 2 -7 2 -21 0 -30z m596 22
c-3 -9 -8 -14 -10 -11 -3 3 -2 9 2 15 9 16 15 13 8 -4z m878 -30 c15 10 10
-12 -6 -25 -24 -20 -38 0 -23 33 12 24 13 25 16 7 2 -11 8 -18 13 -15z m89 15
c0 -5 -2 -10 -4 -10 -3 0 -8 5 -11 10 -3 6 -1 10 4 10 6 0 11 -4 11 -10z
m-1773 -32 c-3 -7 -5 -2 -5 12 0 14 2 19 5 13 2 -7 2 -19 0 -25z m100 10 c-3
-8 -6 -5 -6 6 -1 11 2 17 5 13 3 -3 4 -12 1 -19z m1897 -1 c3 3 6 1 6 -5 0
-15 -38 -11 -45 5 -3 10 0 11 14 4 10 -6 21 -7 25 -4z m-1204 -17 c-6 -11 -8
-26 -4 -32 4 -7 3 -8 -4 -4 -8 5 -12 -1 -12 -17 0 -14 -7 -28 -16 -31 -25 -9
-30 -7 -14 7 9 7 22 31 29 55 8 23 18 42 23 42 5 0 4 -9 -2 -20z m66 8 c4 -7
3 -8 -5 -4 -7 4 -15 -2 -20 -16 -6 -14 -10 -17 -10 -7 -1 8 4 20 11 27 15 15
15 15 24 0z m-649 -80 c-2 -18 -4 -6 -4 27 0 33 2 48 4 33 2 -15 2 -42 0 -60z
m818 -21 c-4 -112 -5 -118 -17 -110 -7 4 -16 8 -20 9 -5 1 -11 2 -14 3 -3 0
-2 6 1 11 5 8 11 7 21 -1 13 -10 14 -7 11 24 -2 20 0 34 4 31 5 -3 9 0 9 5 0
6 -6 11 -12 11 -9 0 -8 4 2 10 11 7 11 10 2 10 -7 0 -10 5 -7 10 3 6 0 10 -7
11 -9 0 -9 2 -2 5 7 3 10 14 7 24 -3 11 -9 17 -14 14 -5 -3 -6 3 -2 12 9 25
39 -37 38 -79z m-1068 61 c-3 -8 -6 -5 -6 6 -1 11 2 17 5 13 3 -3 4 -12 1 -19z
m1857 -49 c5 -4 5 -15 1 -25 -8 -17 -9 -17 -12 4 -3 12 -10 22 -17 22 -7 0
-12 14 -12 36 l0 37 15 -34 c9 -19 20 -37 25 -40z m-865 19 c10 -30 9 -31 -4
-14 -8 11 -15 26 -15 33 0 22 8 14 19 -19z m192 17 c8 5 3 -4 -10 -18 -29 -32
-31 -31 -24 6 4 19 8 24 13 17 5 -7 13 -9 21 -5z m-94 -27 c-3 -7 -5 -2 -5 12
0 14 2 19 5 13 2 -7 2 -19 0 -25z m812 -29 c-8 -5 -18 -9 -24 -9 -5 1 -2 5 8
11 13 8 15 15 7 28 -5 10 -6 21 -2 25 3 4 11 -5 16 -20 6 -19 5 -29 -5 -35z
m-1684 -98 c0 -82 -4 -153 -8 -157 -4 -4 -5 19 -3 52 4 45 3 52 -4 29 -6 -21
-7 -8 -3 45 3 41 5 94 4 118 -1 35 4 62 12 62 1 0 2 -67 2 -149z m802 117 c-3
-8 -6 -5 -6 6 -1 11 2 17 5 13 3 -3 4 -12 1 -19z m-790 -20 c-3 -8 -6 -5 -6 6
-1 11 2 17 5 13 3 -3 4 -12 1 -19z m74 -130 l-11 -33 5 40 c3 22 6 63 7 90 l2
50 3 -57 c2 -31 -1 -71 -6 -90z m584 122 c11 9 12 7 8 -9 -3 -12 -10 -18 -15
-14 -6 3 -8 0 -6 -8 3 -8 10 -13 15 -12 6 1 16 -8 22 -21 8 -14 21 -22 34 -21
15 2 16 1 4 -2 -18 -4 -18 -5 0 -18 11 -9 13 -14 5 -15 -10 0 -10 -5 -1 -22 9
-18 9 -20 0 -12 -7 6 -14 19 -15 28 -3 21 -53 76 -70 76 -7 0 -13 16 -14 38
-2 30 0 34 9 19 8 -14 14 -15 24 -7z m232 -5 c-7 -13 -14 -20 -15 -14 -2 5 2
16 8 24 18 21 20 18 7 -10z m86 -14 c3 -13 1 -18 -9 -14 -7 2 -10 11 -7 19 7
19 10 18 16 -5z m957 13 c0 -2 -15 -11 -32 -20 -33 -17 -33 -17 -15 3 14 16
47 28 47 17z m-287 -24 c-3 -11 -7 -20 -9 -20 -2 0 -4 9 -4 20 0 11 4 20 9 20
5 0 7 -9 4 -20z m-1831 -19 c2 -17 1 -28 -4 -25 -8 5 -12 54 -4 54 2 0 6 -13
8 -29z m2427 -84 c5 -39 5 -76 1 -82 -4 -5 -10 -19 -12 -30 -2 -11 -4 22 -5
72 0 66 -5 100 -16 117 -19 29 -10 44 10 16 8 -11 18 -53 22 -93z m-2525 63
c-5 -5 -10 3 -11 18 -1 22 0 24 9 8 6 -10 6 -22 2 -26z m343 3 c-3 -10 -5 -4
-5 12 0 17 2 24 5 18 2 -7 2 -21 0 -30z m833 -15 c0 -12 8 -18 23 -19 21 0 21
-1 2 -9 -26 -10 -37 1 -42 42 -2 24 0 29 7 18 5 -8 10 -23 10 -32z m110 -13
c0 -2 -6 -8 -14 -14 -12 -10 -14 -8 -10 11 3 19 1 17 -11 -7 -14 -26 -15 -27
-11 -6 3 14 0 32 -7 40 -9 12 -9 13 1 7 7 -4 12 -2 12 5 0 7 9 2 20 -11 11
-13 20 -24 20 -25z m-1330 15 c6 -11 8 -20 6 -20 -3 0 -10 9 -16 20 -6 11 -8
20 -6 20 3 0 10 -9 16 -20z m2103 -28 c1 -13 14 -28 34 -39 31 -16 33 -16 54
2 12 11 19 15 16 8 -4 -6 -4 -13 0 -16 5 -2 3 -2 -4 -1 -7 2 -15 -1 -18 -6 -4
-6 6 -10 21 -10 15 0 25 -3 21 -6 -23 -23 -177 61 -177 96 0 10 7 7 20 -10 22
-28 26 -21 9 13 -10 20 -10 21 5 6 9 -9 18 -25 19 -37z m-1750 -13 c-6 -6 -7
3 -4 23 4 28 6 29 9 9 2 -13 0 -27 -5 -32z m1989 39 c-7 -7 -12 -21 -12 -32 0
-12 -4 -27 -9 -34 -5 -9 -8 -2 -7 20 1 18 8 38 16 45 19 16 28 17 12 1z
m-2303 -45 c-15 -56 -20 -63 -13 -18 6 39 11 55 19 55 2 0 -1 -17 -6 -37z
m626 19 c-3 -3 -11 0 -18 7 -9 10 -8 11 6 5 10 -3 15 -9 12 -12z m-490 -1 c3
-5 1 -12 -5 -16 -5 -3 -10 1 -10 9 0 18 6 21 15 7z m910 -11 c3 -5 1 -10 -4
-10 -6 0 -11 5 -11 10 0 6 2 10 4 10 3 0 8 -4 11 -10z m-365 -4 c0 -11 -19
-15 -25 -6 -3 5 1 10 9 10 9 0 16 -2 16 -4z m1361 -23 c11 -29 8 -29 -22 3
-21 23 -22 26 -5 23 10 -2 22 -14 27 -26z m193 2 c-15 -14 -29 -25 -32 -25 -3
0 5 11 18 25 13 14 27 25 32 25 5 0 -3 -11 -18 -25z m432 -31 c3 -19 4 -38 0
-41 -3 -4 -6 3 -6 15 0 14 -5 20 -14 16 -15 -6 -32 29 -21 45 11 19 35 -1 41
-35z m-1629 14 c-3 -8 -6 -5 -6 6 -1 11 2 17 5 13 3 -3 4 -12 1 -19z m31 -3
c-3 -3 -9 2 -12 12 -6 14 -5 15 5 6 7 -7 10 -15 7 -18z m789 -12 c-3 -10 -5
-4 -5 12 0 17 2 24 5 18 2 -7 2 -21 0 -30z m222 14 c8 -10 7 -14 -2 -14 -8 0
-14 6 -14 14 0 7 1 13 2 13 2 0 8 -6 14 -13z m-2122 -49 c-2 -13 -4 -5 -4 17
-1 22 1 32 4 23 2 -10 2 -28 0 -40z m1243 48 c0 -3 -4 -8 -10 -11 -5 -3 -10
-1 -10 4 0 6 5 11 10 11 6 0 10 -2 10 -4z m-110 -36 c6 -11 7 -20 2 -20 -6 0
-12 9 -15 20 -3 11 -3 20 -1 20 2 0 8 -9 14 -20z m869 -16 c-7 -8 -22 -20 -33
-26 -15 -8 -14 -4 7 15 15 14 27 32 28 39 0 10 2 11 6 0 3 -7 -1 -20 -8 -28z
m-775 14 c-3 -4 -9 -8 -15 -8 -5 0 -9 4 -9 8 0 5 7 9 15 9 8 0 12 -4 9 -9z
m-1053 -52 c11 -12 11 -53 0 -81 -6 -15 -8 -8 -9 25 0 25 -2 59 -5 75 -2 17
-2 21 0 10 3 -11 9 -24 14 -29z m116 17 c-3 -10 -5 -4 -5 12 0 17 2 24 5 18 2
-7 2 -21 0 -30z m-207 -43 l-11 -25 6 25 c2 14 5 36 6 50 l2 25 4 -25 c2 -14
-1 -37 -7 -50z m1779 6 c0 -6 -5 -1 -11 12 -6 12 -15 22 -20 22 -4 0 -8 6 -8
13 1 6 10 1 20 -12 11 -13 20 -28 19 -35z m-725 29 c3 -8 1 -15 -4 -15 -6 0
-10 7 -10 15 0 8 2 15 4 15 2 0 6 -7 10 -15z m891 -4 c-3 -6 -11 -11 -16 -11
-5 0 -4 6 3 14 14 16 24 13 13 -3z m-966 -21 c-6 -16 -15 -27 -21 -24 -6 4 -6
9 -1 13 5 3 12 14 16 24 11 30 16 18 6 -13z m921 1 c0 -11 -12 -33 -26 -48
l-26 -28 21 29 c12 16 21 37 21 47 0 11 2 19 5 19 3 0 5 -9 5 -19z m-1670 -23
c0 -5 -4 -8 -10 -8 -5 0 -10 10 -10 23 0 18 2 19 10 7 5 -8 10 -18 10 -22z
m77 10 c-3 -8 -6 -5 -6 6 -1 11 2 17 5 13 3 -3 4 -12 1 -19z m-270 -85 c-2
-21 -4 -6 -4 32 0 39 2 55 4 38 2 -18 2 -50 0 -70z m2448 88 c3 -5 1 -12 -5
-16 -5 -3 -10 1 -10 9 0 18 6 21 15 7z m-1655 -39 c0 -1 -9 2 -20 8 -11 6 -20
15 -20 20 0 6 9 2 20 -7 11 -10 20 -19 20 -21z m896 23 c-10 -7 -15 -18 -11
-24 3 -7 0 -8 -9 -5 -8 3 -17 12 -20 19 -3 9 0 12 8 9 8 -3 17 -1 21 5 3 6 12
11 18 11 7 0 4 -7 -7 -15z m-1529 -17 c-3 -8 -6 -5 -6 6 -1 11 2 17 5 13 3 -3
4 -12 1 -19z m50 -10 c-3 -7 -5 -2 -5 12 0 14 2 19 5 13 2 -7 2 -19 0 -25z
m1543 2 c0 -22 -5 -30 -17 -29 -11 0 -13 3 -5 6 6 2 12 16 12 29 0 13 2 24 5
24 3 0 5 -13 5 -30z m745 20 c3 -5 2 -10 -4 -10 -5 0 -13 5 -16 10 -3 6 -2 10
4 10 5 0 13 -4 16 -10z m-1455 -33 c0 -4 -6 -2 -14 5 -8 7 -12 17 -9 22 5 8
23 -12 23 -27z m-863 -9 c-3 -7 -5 -2 -5 12 0 14 2 19 5 13 2 -7 2 -19 0 -25z
m2358 22 c3 -5 1 -10 -4 -10 -6 0 -11 5 -11 10 0 6 2 10 4 10 3 0 8 -4 11 -10z
m-1692 -7 c-7 -2 -19 -2 -25 0 -7 3 -2 5 12 5 14 0 19 -2 13 -5z m107 -19 c0
-2 -7 -4 -15 -4 -8 0 -15 4 -15 10 0 5 7 7 15 4 8 -4 15 -8 15 -10z m119 -24
c0 -10 -3 -8 -9 5 -12 27 -12 43 0 25 5 -8 9 -22 9 -30z m-900 -25 c1 -17 -1
-17 -9 -5 -5 8 -9 26 -9 40 0 23 1 23 9 5 5 -11 9 -29 9 -40z m1628 49 c-3 -3
-12 -4 -19 -1 -8 3 -5 6 6 6 11 1 17 -2 13 -5z m-1760 -36 c-3 -8 -6 -5 -6 6
-1 11 2 17 5 13 3 -3 4 -12 1 -19z m170 -10 c-3 -7 -5 -2 -5 12 0 14 2 19 5
13 2 -7 2 -19 0 -25z m-73 -10 c-4 -13 -7 -33 -5 -45 1 -13 -2 -23 -8 -23 -14
0 -14 26 1 67 13 36 24 38 12 1z m-67 -90 c-2 -24 -4 -7 -4 37 0 44 2 63 4 43
2 -21 2 -57 0 -80z m1054 95 c13 -16 12 -17 -3 -4 -17 13 -22 21 -14 21 2 0
10 -8 17 -17z m-744 -35 c-3 -8 -6 -5 -6 6 -1 11 2 17 5 13 3 -3 4 -12 1 -19z
m-230 -35 c-3 -10 -5 -4 -5 12 0 17 2 24 5 18 2 -7 2 -21 0 -30z m67 -60 c4
-14 3 -23 -3 -23 -6 0 -8 -6 -5 -14 3 -8 1 -17 -4 -20 -5 -3 -9 30 -9 77 0 62
1 72 6 42 4 -22 11 -50 15 -62z m63 65 c-3 -7 -5 -2 -5 12 0 14 2 19 5 13 2
-7 2 -19 0 -25z m-260 -10 c-3 -8 -6 -5 -6 6 -1 11 2 17 5 13 3 -3 4 -12 1
-19z m1712 -22 c-2 -2 -13 8 -23 22 l-19 27 24 -22 c12 -12 21 -24 18 -27z
m-1767 -18 c-4 -4 -9 7 -9 25 -2 30 -2 31 8 8 5 -14 6 -28 1 -33z m45 0 c-3
-8 -6 -5 -6 6 -1 11 2 17 5 13 3 -3 4 -12 1 -19z m110 0 c-3 -8 -6 -5 -6 6 -1
11 2 17 5 13 3 -3 4 -12 1 -19z m20 -10 c-3 -7 -5 -2 -5 12 0 14 2 19 5 13 2
-7 2 -19 0 -25z m1503 -22 c0 -12 -5 -7 -19 24 -11 24 -11 24 3 6 9 -11 16
-24 16 -30z m680 -21 c0 -30 -4 -55 -10 -55 -11 0 -13 52 -4 88 10 36 14 26
14 -33z m-2325 -36 l-15 -64 5 53 c6 52 14 86 21 79 2 -2 -3 -32 -11 -68z
m115 56 c0 -8 -4 -15 -10 -15 -5 0 -10 7 -10 15 0 8 5 15 10 15 6 0 10 -7 10
-15z m2537 -17 c-3 -8 -6 -5 -6 6 -1 11 2 17 5 13 3 -3 4 -12 1 -19z m-2590
-10 c-3 -8 -6 -5 -6 6 -1 11 2 17 5 13 3 -3 4 -12 1 -19z m70 -10 c-3 -8 -6
-5 -6 6 -1 11 2 17 5 13 3 -3 4 -12 1 -19z m1420 0 c-3 -8 -6 -5 -6 6 -1 11 2
17 5 13 3 -3 4 -12 1 -19z m-1446 -60 c1 -40 3 -84 4 -98 14 -133 17 -182 11
-206 -6 -22 -9 -25 -17 -13 -5 7 -8 28 -8 44 2 30 2 30 9 -5 7 -31 7 -29 9 21
1 62 -8 121 -18 115 -3 -2 -6 45 -6 105 0 120 14 152 16 37z m296 50 c-3 -8
-6 -5 -6 6 -1 11 2 17 5 13 3 -3 4 -12 1 -19z m-143 4 c9 -14 18 -77 10 -69
-13 12 -32 77 -23 77 4 0 10 -4 13 -8z m2252 -1 c-4 -5 -1 -11 6 -13 8 -3 6
-7 -5 -11 -17 -6 -24 12 -10 26 9 10 15 8 9 -2z m-849 -48 c-3 -10 -5 -2 -5
17 0 19 2 27 5 18 2 -10 2 -26 0 -35z m-2197 34 c0 -2 -12 -14 -27 -28 l-28
-24 24 28 c23 25 31 32 31 24z m657 -44 c-3 -10 -5 -4 -5 12 0 17 2 24 5 18 2
-7 2 -21 0 -30z m1423 -8 c0 -38 -3 -45 -19 -45 -11 0 -22 -6 -24 -12 -4 -10
-6 -10 -6 0 -1 8 8 16 19 19 17 5 18 8 8 21 -10 12 -10 14 0 8 8 -5 12 2 12
23 0 17 2 31 5 31 3 0 5 -20 5 -45z m-1463 3 c-3 -7 -5 -2 -5 12 0 14 2 19 5
13 2 -7 2 -19 0 -25z m120 10 c-3 -8 -6 -5 -6 6 -1 11 2 17 5 13 3 -3 4 -12 1
-19z m23 -13 c0 -14 -4 -25 -9 -25 -4 0 -6 11 -3 25 2 14 6 25 8 25 2 0 4 -11
4 -25z m2115 15 c-3 -5 -13 -10 -21 -10 -8 0 -14 5 -14 10 0 6 9 10 21 10 11
0 17 -4 14 -10z m-2940 -20 c-3 -5 -16 -15 -28 -21 -19 -9 -19 -8 3 10 28 23
34 26 25 11z m452 -12 c-3 -8 -6 -5 -6 6 -1 11 2 17 5 13 3 -3 4 -12 1 -19z
m1818 2 c3 -5 1 -10 -4 -10 -6 0 -11 5 -11 10 0 6 2 10 4 10 3 0 8 -4 11 -10z
m-1688 -37 c-3 -10 -5 -4 -5 12 0 17 2 24 5 18 2 -7 2 -21 0 -30z m30 -5 c-3
-7 -5 -2 -5 12 0 14 2 19 5 13 2 -7 2 -19 0 -25z m180 -5 c-3 -10 -5 -4 -5 12
0 17 2 24 5 18 2 -7 2 -21 0 -30z m122 -38 c0 -5 -6 1 -14 15 -8 14 -14 34
-14 45 0 13 5 8 14 -15 7 -19 14 -39 14 -45z m-232 33 c-3 -7 -5 -2 -5 12 0
14 2 19 5 13 2 -7 2 -19 0 -25z m260 10 c-3 -8 -6 -5 -6 6 -1 11 2 17 5 13 3
-3 4 -12 1 -19z m84 -5 c-12 -20 -14 -14 -5 12 4 9 9 14 11 11 3 -2 0 -13 -6
-23z m-294 -5 c-3 -8 -6 -5 -6 6 -1 11 2 17 5 13 3 -3 4 -12 1 -19z m93 18 c0
-3 -4 -8 -10 -11 -5 -3 -10 -1 -10 4 0 6 5 11 10 11 6 0 10 -2 10 -4z m2097
-48 c-2 -13 -4 -5 -4 17 -1 22 1 32 4 23 2 -10 2 -28 0 -40z m-2258 -42 c1
-55 -5 -42 -12 24 -3 34 -2 47 3 35 5 -11 9 -38 9 -59z m312 43 c-9 -22 -10
-22 -10 -3 -1 11 2 24 6 27 12 12 14 0 4 -24z m-366 -26 c-10 -69 -24 -89 -25
-35 0 26 4 41 10 37 6 -4 10 5 10 19 0 14 3 26 6 26 4 0 3 -21 -1 -47z m262
25 c-3 -8 -6 -5 -6 6 -1 11 2 17 5 13 3 -3 4 -12 1 -19z m1220 0 c-3 -8 -6 -5
-6 6 -1 11 2 17 5 13 3 -3 4 -12 1 -19z m-1070 -30 c-3 -7 -5 -2 -5 12 0 14 2
19 5 13 2 -7 2 -19 0 -25z m140 26 c-3 -3 -12 -4 -19 -1 -8 3 -5 6 6 6 11 1
17 -2 13 -5z m-640 -36 c-3 -8 -6 -5 -6 6 -1 11 2 17 5 13 3 -3 4 -12 1 -19z
m360 0 c-3 -8 -6 -5 -6 6 -1 11 2 17 5 13 3 -3 4 -12 1 -19z m40 0 c-3 -8 -6
-5 -6 6 -1 11 2 17 5 13 3 -3 4 -12 1 -19z m1152 -4 c-12 -14 -10 -15 19 -11
18 3 30 1 26 -4 -5 -9 -64 -13 -64 -4 0 10 24 44 29 40 2 -3 -2 -12 -10 -21z
m-1092 -83 c-4 -48 -9 -96 -13 -105 -5 -12 -2 -15 10 -10 11 4 16 1 16 -11 0
-9 -4 -14 -9 -10 -5 3 -13 -5 -16 -16 -7 -20 -8 -20 -17 -5 -5 9 -6 26 -2 39
10 32 15 63 21 140 3 37 8 67 11 67 3 0 2 -40 -1 -89z m1203 66 c0 -12 -6 -32
-14 -43 -16 -22 -16 -22 42 -106 22 -30 22 -31 2 -8 -12 14 -31 36 -43 50 -13
16 -21 21 -24 13 -3 -7 -9 -13 -14 -13 -5 0 -4 9 3 19 9 15 8 24 -5 44 -12 19
-14 28 -5 33 6 4 9 3 5 -2 -3 -5 1 -17 8 -27 14 -20 32 -6 19 15 -5 7 -3 8 6
3 10 -6 11 -2 6 19 -4 15 -2 26 4 26 5 0 10 -10 10 -23z m-1675 3 c3 -5 1 -10
-4 -10 -6 0 -11 5 -11 10 0 6 2 10 4 10 3 0 8 -4 11 -10z m362 -47 c-3 -10 -5
-2 -5 17 0 19 2 27 5 18 2 -10 2 -26 0 -35z m60 10 c-3 -10 -5 -4 -5 12 0 17
2 24 5 18 2 -7 2 -21 0 -30z m930 31 c-3 -3 -12 -4 -19 -1 -8 3 -5 6 6 6 11 1
17 -2 13 -5z m-1170 -26 c-3 -8 -6 -5 -6 6 -1 11 2 17 5 13 3 -3 4 -12 1 -19z
m1118 12 c-3 -5 -13 -10 -21 -10 -8 0 -12 5 -9 10 3 6 13 10 21 10 8 0 12 -4
9 -10z m-1185 -7 c0 -5 -5 -15 -10 -23 -8 -12 -10 -11 -10 8 0 12 5 22 10 22
6 0 10 -3 10 -7z m117 -15 c-3 -8 -6 -5 -6 6 -1 11 2 17 5 13 3 -3 4 -12 1
-19z m1341 -13 c-6 -14 -13 -23 -15 -21 -5 5 15 46 22 46 3 0 -1 -11 -7 -25z
m-1591 -22 c-3 -10 -5 -4 -5 12 0 17 2 24 5 18 2 -7 2 -21 0 -30z m26 -18 c5
-28 4 -34 -3 -20 -8 19 -14 73 -6 64 2 -2 6 -22 9 -44z m431 19 c3 -8 2 -12
-4 -9 -6 3 -10 10 -10 16 0 14 7 11 14 -7z m-327 -26 c-3 -7 -5 -2 -5 12 0 14
2 19 5 13 2 -7 2 -19 0 -25z m240 -101 c-2 -23 -3 -2 -3 48 0 50 1 68 3 42 2
-26 2 -67 0 -90z m46 91 c-3 -18 -10 -37 -15 -43 -7 -7 -8 -1 -3 15 3 14 9 33
11 43 9 29 14 19 7 -15z m1976 -27 c-15 -73 -16 -75 -11 -26 2 28 4 59 4 70
-1 14 1 16 7 6 5 -7 5 -29 0 -50z m-2387 -22 l-10 -34 1 42 c1 24 5 39 10 34
4 -4 4 -23 -1 -42z m2251 31 c3 -11 1 -23 -4 -26 -5 -3 -9 6 -9 20 0 31 6 34
13 6z m406 -35 c0 -5 -6 -1 -14 9 -8 11 -15 27 -15 35 1 17 29 -26 29 -44z
m-1121 20 c-6 -14 -13 -23 -15 -21 -5 5 15 46 22 46 3 0 -1 -11 -7 -25z
m-1511 -17 c-3 -8 -6 -5 -6 6 -1 11 2 17 5 13 3 -3 4 -12 1 -19z m270 -10 c-3
-8 -6 -5 -6 6 -1 11 2 17 5 13 3 -3 4 -12 1 -19z m-180 -20 c-3 -7 -5 -2 -5
12 0 14 2 19 5 13 2 -7 2 -19 0 -25z m143 -67 c-1 -20 -39 59 -39 79 0 8 9 -3
19 -24 11 -22 20 -47 20 -55z m-93 57 c-3 -8 -6 -5 -6 6 -1 11 2 17 5 13 3 -3
4 -12 1 -19z m1328 -35 c-9 -15 -13 -19 -10 -8 4 11 10 29 13 40 3 11 7 14 9
8 3 -7 -3 -24 -12 -40z m-1411 12 c3 -8 1 -15 -4 -15 -6 0 -10 7 -10 15 0 8 2
15 4 15 2 0 6 -7 10 -15z m1252 -7 c4 -6 2 -14 -4 -16 -7 -2 -10 -8 -7 -13 4
-5 0 -6 -8 -3 -8 3 -18 1 -22 -5 -3 -6 -1 -11 5 -11 7 0 9 -8 5 -20 -4 -11 -2
-20 4 -20 6 0 11 -4 11 -10 0 -21 -37 -9 -48 15 -16 34 -15 46 4 73 16 24 48
29 60 10z m1157 -18 c3 -11 1 -18 -4 -14 -5 3 -9 12 -9 20 0 20 7 17 13 -6z
m-2261 -27 c-3 -16 -7 -22 -10 -15 -4 13 4 42 11 42 2 0 2 -12 -1 -27z m2457
-18 c0 -5 -4 -3 -9 5 -5 8 -9 22 -9 30 0 16 17 -16 18 -35z m-2602 -12 c-3
-10 -5 -2 -5 17 0 19 2 27 5 18 2 -10 2 -26 0 -35z m189 12 c0 -19 -6 -37 -12
-39 -7 -3 -11 0 -9 7 2 7 6 24 9 40 8 36 12 34 12 -8z m-159 3 c-3 -8 -6 -5
-6 6 -1 11 2 17 5 13 3 -3 4 -12 1 -19z m274 8 c-4 -6 -11 -18 -14 -26 -3 -9
-6 -5 -6 11 -1 16 4 26 14 26 9 0 11 -4 6 -11z m100 -29 c-8 -8 -11 -5 -11 9
0 27 14 41 18 19 2 -9 -1 -22 -7 -28z m2019 12 c0 -11 -4 -17 -10 -14 -5 3
-10 13 -10 21 0 8 5 14 10 14 6 0 10 -9 10 -21z m-2410 -46 c-11 -17 -11 -17
-6 0 3 10 6 24 7 30 0 9 2 9 5 0 3 -7 0 -20 -6 -30z m437 15 c-3 -8 -6 -5 -6
6 -1 11 2 17 5 13 3 -3 4 -12 1 -19z"/>
<path d="M1617 1971 c-4 -17 -3 -21 5 -13 5 5 8 16 6 23 -3 8 -7 3 -11 -10z"/>
<path d="M2081 1818 c-1 -10 -7 -18 -13 -18 -7 0 -5 -5 5 -11 24 -14 30 -7 18
22 -7 17 -10 19 -10 7z"/>
<path d="M2200 1790 c0 -16 4 -30 8 -30 5 0 7 14 4 30 -2 17 -6 30 -8 30 -2 0
-4 -13 -4 -30z"/>
<path d="M2135 1780 c3 -5 8 -10 11 -10 2 0 4 5 4 10 0 6 -5 10 -11 10 -5 0
-7 -4 -4 -10z"/>
<path d="M2311 1595 c0 -5 6 -21 14 -35 8 -14 14 -20 14 -15 0 6 -6 21 -14 35
-8 14 -14 21 -14 15z"/>
<path d="M2211 1564 c0 -11 3 -14 6 -6 3 7 2 16 -1 19 -3 4 -6 -2 -5 -13z"/>
<path d="M1900 1386 c0 -2 7 -9 15 -16 9 -7 15 -8 15 -2 0 5 -7 12 -15 16 -8
3 -15 4 -15 2z"/>
<path d="M1921 1294 c0 -11 3 -14 6 -6 3 7 2 16 -1 19 -3 4 -6 -2 -5 -13z"/>
<path d="M2407 1267 c-5 -20 -13 -27 -22 -23 -8 3 -15 1 -15 -4 0 -5 8 -11 18
-13 10 -3 6 -5 -10 -6 -24 -1 -28 -5 -28 -31 0 -16 -4 -30 -9 -30 -4 0 -8 17
-7 38 1 32 -2 37 -19 33 -20 -3 -20 -3 0 20 l20 23 -27 -20 c-14 -10 -22 -21
-17 -22 5 -2 7 -8 4 -12 -10 -17 7 -58 25 -63 17 -4 18 -8 7 -31 -7 -14 -14
-21 -15 -16 -2 6 -8 8 -13 4 -5 -3 -9 0 -9 6 0 6 -5 8 -10 5 -6 -4 -2 -13 10
-23 24 -20 30 -76 10 -95 -8 -8 -11 -8 -7 -1 4 7 -2 14 -13 17 -21 5 -28 -7
-10 -18 6 -4 8 -15 5 -25 -3 -10 -1 -21 5 -25 6 -3 7 -11 4 -17 -4 -6 -2 -8 4
-4 5 3 13 0 15 -6 3 -7 5 -1 4 15 -1 15 -5 27 -10 27 -4 0 -5 5 -2 10 10 16
25 12 25 -6 0 -12 3 -14 13 -6 14 12 31 4 34 -15 2 -7 -8 -15 -21 -19 -13 -3
-28 -16 -34 -29 -11 -23 -47 -29 -47 -7 0 6 -3 14 -7 18 -5 4 -8 0 -8 -9 0 -9
5 -19 10 -22 6 -4 8 -16 4 -27 -4 -15 -3 -18 6 -13 9 6 9 3 1 -14 -8 -15 -9
-21 -1 -21 6 0 8 -4 5 -10 -8 -13 11 -13 38 1 16 7 14 4 -5 -11 -16 -12 -28
-31 -28 -41 0 -32 20 -61 36 -55 9 3 12 1 9 -4 -11 -17 7 -11 21 8 13 16 14
16 8 -3 -5 -16 -4 -17 4 -5 8 10 7 19 -1 29 -7 8 -7 12 -2 9 6 -4 15 12 21 38
10 44 10 46 -22 70 -17 14 -36 24 -40 23 -19 -3 -34 1 -34 10 0 10 39 3 56
-10 6 -5 14 -6 17 -2 4 3 7 1 7 -6 0 -7 5 -9 10 -6 6 4 8 11 5 16 -3 5 2 6 11
2 12 -4 15 -3 10 5 -5 8 -2 10 9 6 12 -5 13 -10 4 -20 -6 -8 -15 -11 -20 -8
-5 3 -9 -2 -9 -11 0 -9 4 -14 9 -10 5 3 13 0 17 -6 3 -6 2 -14 -5 -18 -6 -4
-13 -23 -16 -41 -5 -31 -4 -32 5 -11 6 13 13 21 16 19 3 -3 -4 -23 -15 -44
-23 -42 -21 -50 6 -39 10 5 21 8 24 7 4 -1 5 15 2 36 -9 82 -8 98 4 120 8 12
9 22 4 22 -5 0 -11 12 -14 27 -5 24 -4 26 8 10 12 -16 13 -16 18 5 4 12 4 24
2 27 -3 2 -5 -2 -5 -10 0 -11 -2 -11 -10 1 -13 20 -13 33 0 25 7 -4 9 3 5 22
l-6 28 23 -27 23 -27 1 32 c1 18 -1 26 -3 20 -3 -7 -9 -13 -14 -13 -6 0 -7 5
-4 10 11 18 -24 22 -41 5 -9 -9 -24 -13 -33 -10 -13 5 -14 4 -3 -6 19 -20 14
-31 -8 -17 -18 12 -18 14 18 47 23 21 32 36 24 38 -7 3 -17 13 -22 24 -8 14
-7 17 3 13 8 -3 14 2 14 10 0 8 -4 13 -9 10 -4 -3 -8 0 -8 7 0 6 8 9 20 6 15
-4 20 0 20 14 0 21 -16 26 -23 7 -3 -9 -10 -8 -26 6 -11 11 -21 23 -21 29 0 5
9 -1 19 -14 l19 -24 7 27 c4 15 4 31 1 37 -3 5 0 12 6 14 10 4 9 6 -1 6 -11 1
-11 4 -1 16 6 8 10 22 8 32 -3 13 -6 10 -11 -10z m-77 -57 c0 -5 -8 -10 -17
-10 -15 0 -16 2 -3 10 19 12 20 12 20 0z m12 -132 c-8 -8 -9 -4 -5 13 4 13 8
18 11 10 2 -7 -1 -18 -6 -23z m28 -18 c-12 -22 -21 -26 -17 -7 2 10 17 26 25
27 1 0 -2 -9 -8 -20z m25 -149 c6 -1 4 -5 -3 -10 -14 -9 -62 -3 -62 8 0 6 18
6 65 2z"/>
<path d="M2167 1239 c7 -7 15 -10 18 -7 3 3 -2 9 -12 12 -14 6 -15 5 -6 -5z"/>
<path d="M2087 1192 c-17 -18 -14 -32 6 -32 6 0 7 3 4 7 -4 3 -2 12 5 20 17
21 3 25 -15 5z"/>
<path d="M2161 1198 c-1 -9 -8 -23 -16 -32 -8 -8 -11 -17 -7 -20 12 -7 36 39
29 56 -4 9 -6 8 -6 -4z"/>
<path d="M2232 1190 c0 -14 2 -19 5 -12 2 6 2 18 0 25 -3 6 -5 1 -5 -13z"/>
<path d="M2251 1194 c0 -11 3 -14 6 -6 3 7 2 16 -1 19 -3 4 -6 -2 -5 -13z"/>
<path d="M2434 1203 c3 -6 0 -14 -6 -17 -10 -3 -8 -9 4 -19 10 -8 15 -17 12
-20 -3 -3 -3 -15 1 -26 6 -19 8 -20 22 -6 8 9 12 19 9 23 -4 3 -11 0 -16 -7
-5 -9 -8 -1 -8 24 0 20 -6 42 -12 49 -10 8 -11 8 -6 -1z"/>
<path d="M2202 1170 c-12 -32 -11 -34 4 -19 9 9 14 25 12 35 -3 14 -7 10 -16
-16z"/>
<path d="M2270 1160 c0 -19 3 -21 12 -12 9 9 9 15 0 24 -9 9 -12 7 -12 -12z"/>
<path d="M2241 1161 c-12 -8 -12 -14 -1 -41 11 -27 11 -33 0 -40 -17 -11 -30
-4 -30 16 0 8 5 12 10 9 6 -3 10 1 10 9 0 28 -16 25 -35 -7 -11 -18 -18 -36
-17 -41 2 -5 -4 -27 -13 -48 -8 -22 -11 -37 -5 -33 5 3 10 -1 10 -10 0 -11 5
-15 14 -12 8 3 17 -1 20 -9 4 -10 2 -12 -6 -8 -7 4 -8 3 -4 -4 13 -21 28 -13
24 13 -3 13 -1 22 3 19 5 -3 9 3 10 13 0 16 1 16 8 -1 5 -13 10 -16 14 -9 4 7
2 15 -4 18 -5 4 -8 14 -5 22 3 8 1 11 -4 8 -6 -3 -10 1 -10 9 0 9 0 19 0 24 0
4 6 7 13 7 8 0 13 18 14 53 1 28 1 52 0 52 -1 0 -8 -4 -16 -9z m-29 -98 c0 -4
4 -19 9 -31 8 -20 6 -25 -11 -29 -11 -3 -20 -10 -20 -16 0 -7 -4 -7 -12 1 -9
9 -9 18 -1 34 6 13 14 32 17 42 6 18 17 17 18 -1z"/>
<path d="M2190 1020 c-9 -16 -8 -18 5 -14 8 4 15 12 15 20 0 20 -7 17 -20 -6z"/>
<path d="M2507 1153 c-4 -3 -7 -13 -7 -22 1 -13 3 -13 11 2 11 19 8 33 -4 20z"/>
<path d="M2122 1105 c-23 -24 -42 -49 -41 -57 0 -7 5 -4 10 7 7 15 8 10 5 -21
-2 -22 0 -48 5 -57 6 -10 5 -18 -2 -23 -8 -4 -9 -3 -5 4 4 7 3 12 -2 12 -6 0
-12 -7 -16 -15 -7 -19 30 -21 37 -2 4 9 8 8 16 -3 7 -9 11 -10 11 -3 0 6 -4
15 -10 18 -5 3 -10 11 -10 16 0 6 4 7 10 4 6 -4 7 1 3 11 -5 13 -3 15 8 9 8
-4 11 -4 6 0 -4 5 1 17 10 27 14 16 15 21 3 28 -8 5 -21 5 -32 -1 -14 -7 -16
-6 -12 6 4 9 9 14 11 11 7 -7 38 25 46 46 12 33 -9 26 -51 -17z m0 -97 c-9 -9
-12 -7 -12 12 0 19 3 21 12 12 9 -9 9 -15 0 -24z"/>
<path d="M2671 1124 c12 -13 25 -21 30 -19 4 3 16 -6 27 -20 16 -19 21 -22 25
-10 7 16 3 19 -61 51 l-44 22 23 -24z"/>
<path d="M2425 1099 c-4 -6 -5 -12 -2 -15 2 -3 7 2 10 11 7 17 1 20 -8 4z"/>
<path d="M2274 1088 c-4 -6 -2 -14 4 -16 6 -2 8 -10 5 -18 -3 -8 0 -14 6 -14
13 0 15 46 2 55 -5 3 -13 0 -17 -7z"/>
<path d="M2455 1070 c3 -5 14 -10 23 -10 15 0 15 2 2 10 -20 13 -33 13 -25 0z"/>
<path d="M2510 1034 c0 -8 5 -12 10 -9 6 4 8 11 5 16 -9 14 -15 11 -15 -7z"/>
<path d="M2449 1027 c7 -7 14 -8 21 -1 6 6 2 10 -12 11 -16 2 -18 -1 -9 -10z"/>
<path d="M2524 1009 c-3 -6 -3 -13 0 -16 3 -4 6 -1 6 5 0 6 7 9 15 6 8 -4 15
-4 15 -1 0 11 -30 16 -36 6z"/>
<path d="M2040 970 c0 -19 3 -21 12 -12 9 9 9 15 0 24 -9 9 -12 7 -12 -12z"/>
<path d="M2234 946 c-3 -8 -7 -22 -8 -31 -1 -9 -8 -20 -16 -25 -10 -6 -7 -11
9 -20 20 -10 22 -9 20 7 -5 30 10 75 23 67 7 -4 8 -3 4 4 -10 16 -25 15 -32
-2z"/>
<path d="M2490 944 c0 -8 5 -12 10 -9 6 4 8 11 5 16 -9 14 -15 11 -15 -7z"/>
<path d="M2470 909 c0 -5 5 -7 10 -4 6 3 10 8 10 11 0 2 -4 4 -10 4 -5 0 -10
-5 -10 -11z"/>
<path d="M2283 668 c-1 -10 3 -18 9 -16 18 6 21 25 5 31 -8 3 -13 -3 -14 -15z"/>
<path d="M3211 1424 c0 -11 3 -14 6 -6 3 7 2 16 -1 19 -3 4 -6 -2 -5 -13z"/>
<path d="M1211 174 c0 -11 3 -14 6 -6 3 7 2 16 -1 19 -3 4 -6 -2 -5 -13z"/>
<path d="M2561 4111 c-9 -6 3 -8 33 -6 26 2 44 -1 41 -6 -4 -5 4 -9 17 -9 l23
-1 -25 -15 -25 -15 27 5 c15 4 39 1 55 -6 15 -7 33 -12 38 -13 6 0 20 -6 32
-13 27 -15 33 -15 33 -1 0 5 -4 8 -9 5 -4 -3 -16 3 -26 14 -10 11 -28 20 -41
20 -26 0 -40 16 -22 23 7 3 -1 6 -19 6 -17 1 -35 6 -38 11 -8 12 -75 13 -94 1z"/>
<path d="M2106 4101 c-4 -5 3 -7 14 -4 23 6 26 13 6 13 -8 0 -17 -4 -20 -9z"/>
<path d="M2447 4083 c-16 -8 -27 -17 -25 -19 7 -6 68 19 68 28 0 11 -10 9 -43
-9z"/>
<path d="M2564 4085 c-16 -12 -17 -14 -3 -15 9 0 19 7 23 15 7 19 5 19 -20 0z"/>
<path d="M2984 4059 c-3 -6 -1 -16 4 -21 8 -8 11 -5 9 11 -1 24 -3 25 -13 10z"/>
<path d="M2794 3959 c-5 -8 12 -22 53 -43 20 -10 34 -12 38 -6 6 10 4 11 -25
14 -8 0 -14 7 -12 14 1 6 -3 12 -9 12 -5 0 -8 4 -5 8 2 4 -4 8 -15 8 -11 0
-22 -3 -25 -7z"/>
<path d="M3180 3770 c0 -5 5 -10 10 -10 6 0 10 5 10 10 0 6 -4 10 -10 10 -5 0
-10 -4 -10 -10z"/>
<path d="M4372 3680 c-9 -36 -8 -40 11 -46 15 -5 26 0 39 16 23 29 23 41 -2
47 -11 3 -20 9 -20 14 0 25 -19 4 -28 -31z"/>
<path d="M4339 3567 c-15 -11 -15 -15 -3 -32 8 -10 14 -33 14 -51 0 -29 13
-44 40 -44 18 0 18 42 -1 61 -13 13 -19 30 -17 46 3 30 -10 38 -33 20z"/>
<path d="M0 3130 c0 -211 2 -241 16 -247 12 -5 15 -15 10 -48 -8 -52 8 -71 48
-55 32 12 32 15 1 56 -31 40 -26 76 20 149 27 44 31 60 34 136 2 72 -1 92 -18
125 -34 65 -76 119 -94 122 -16 3 -17 -16 -17 -238z"/>
<path d="M4448 3323 c6 -2 18 -2 25 0 6 3 1 5 -13 5 -14 0 -19 -2 -12 -5z"/>
<path d="M4095 3294 l-17 -27 28 7 c35 9 48 21 40 35 -12 19 -33 12 -51 -15z"/>
<path d="M3300 3273 c0 -5 5 -15 10 -23 8 -12 10 -11 10 8 0 12 -4 22 -10 22
-5 0 -10 -3 -10 -7z"/>
<path d="M3300 3211 c0 -5 5 -13 10 -16 6 -3 10 -2 10 4 0 5 -4 13 -10 16 -5
3 -10 2 -10 -4z"/>
<path d="M3320 3170 c0 -5 -6 -7 -13 -4 -11 4 -12 -6 -6 -51 4 -31 10 -59 13
-63 3 -3 -1 -16 -9 -29 -18 -27 -13 -43 13 -36 16 4 18 15 17 79 -1 57 2 73
12 70 9 -4 8 2 -3 19 -17 27 -24 31 -24 15z"/>
<path d="M2663 2933 c-13 -2 -23 -8 -23 -13 0 -5 -6 -7 -14 -4 -20 8 -70 -20
-89 -49 -12 -18 -22 -23 -40 -20 -34 7 -74 -32 -56 -53 7 -9 12 -37 10 -66 -2
-46 0 -50 18 -45 14 3 18 1 14 -9 -3 -8 1 -14 11 -14 19 0 21 -16 4 -23 -26
-9 9 -42 83 -79 86 -44 153 -50 222 -19 23 10 49 21 57 24 8 3 0 6 -17 6 -18
1 -33 6 -33 11 0 6 -7 10 -16 10 -8 0 -12 5 -9 10 3 6 -1 12 -9 15 -52 16 -52
17 -31 25 11 4 58 6 104 4 74 -4 82 -2 71 11 -11 13 -10 14 6 9 18 -7 18 -6
-1 16 -25 29 -93 72 -120 76 -97 15 -138 39 -105 59 6 4 8 10 5 15 -5 8 66 19
110 18 11 -1 29 2 40 6 17 7 17 6 5 -4 -13 -10 -13 -11 0 -7 25 6 24 35 -2 40
-17 3 -15 5 10 6 17 0 32 3 32 5 0 14 -14 36 -22 36 -7 0 -6 -5 1 -14 9 -11 6
-12 -15 -8 -16 3 -21 7 -14 12 9 5 9 9 1 14 -6 4 -11 2 -11 -3 0 -6 -7 -11
-16 -11 -8 0 -12 5 -9 10 8 13 -61 13 -86 0 -13 -7 -19 -7 -19 0 0 10 -7 11
-47 3z m227 -243 c8 -5 12 -11 10 -14 -3 -2 -14 2 -24 10 -22 15 -10 19 14 4z"/>
<path d="M3310 2900 c0 -11 5 -20 10 -20 6 0 10 9 10 20 0 11 -4 20 -10 20 -5
0 -10 -9 -10 -20z"/>
<path d="M3260 2871 c0 -5 7 -14 15 -21 16 -14 18 -10 9 14 -6 17 -24 22 -24
7z"/>
<path d="M1062 2825 c-6 -14 -8 -25 -3 -25 4 0 13 11 19 25 6 14 8 25 3 25 -4
0 -13 -11 -19 -25z"/>
<path d="M2920 2620 c0 -5 7 -7 15 -4 8 4 15 8 15 10 0 2 -7 4 -15 4 -8 0 -15
-4 -15 -10z"/>
<path d="M1000 2570 c0 -5 5 -10 10 -10 6 0 10 5 10 10 0 6 -4 10 -10 10 -5 0
-10 -4 -10 -10z"/>
<path d="M3297 2540 c-18 -38 -16 -80 3 -80 13 0 19 29 18 78 0 23 -1 42 -2
42 0 0 -9 -18 -19 -40z"/>
<path d="M4214 2533 c1 -19 34 -38 45 -27 3 4 0 9 -6 11 -7 3 -13 11 -13 19 0
8 -6 14 -14 14 -8 0 -13 -8 -12 -17z"/>
<path d="M1005 2488 c7 -34 -4 -80 -16 -72 -5 3 -9 0 -9 -5 0 -16 16 -13 34 5
20 19 20 42 0 74 l-15 25 6 -27z"/>
<path d="M3249 2449 c-7 -18 -13 -48 -13 -68 -1 -20 -3 -38 -6 -41 -3 -3 -16
-20 -29 -38 -17 -24 -20 -37 -13 -44 8 -8 15 -3 23 15 7 15 16 27 20 27 10 0
22 -32 20 -56 -1 -11 5 -27 13 -34 14 -11 16 -8 17 21 1 19 1 65 -1 103 -2 60
0 68 14 63 12 -5 16 0 16 23 0 34 -13 39 -30 13 -9 -15 -10 -12 -7 15 5 41 -7
41 -24 1z"/>
<path d="M2480 2190 c-13 -8 -13 -10 2 -10 9 0 20 5 23 10 8 13 -5 13 -25 0z"/>
<path d="M3220 2180 c0 -5 5 -10 11 -10 5 0 7 5 4 10 -3 6 -8 10 -11 10 -2 0
-4 -4 -4 -10z"/>
<path d="M151 2140 c0 -8 4 -24 8 -34 6 -15 10 -16 16 -7 4 7 3 16 -2 20 -6 3
-13 13 -16 21 -5 13 -5 13 -6 0z"/>
<path d="M3190 2095 c0 -5 5 -17 10 -25 5 -8 10 -10 10 -5 0 6 -5 17 -10 25
-5 8 -10 11 -10 5z"/>
<path d="M3417 1973 c-4 -3 -1 -16 6 -27 18 -28 27 -64 16 -68 -5 -2 7 -14 26
-27 20 -13 38 -21 42 -18 12 13 -59 147 -78 147 -3 0 -9 -3 -12 -7z"/>
<path d="M2908 1938 c-3 -26 -4 -68 -1 -68 3 0 33 70 33 76 0 11 -30 2 -32 -8z"/>
<path d="M900 1901 c-6 -12 -7 -21 -1 -21 10 0 24 30 17 37 -2 3 -9 -5 -16
-16z"/>
<path d="M4117 1913 c-10 -10 -8 -51 3 -58 8 -5 40 43 40 60 0 7 -35 6 -43 -2z"/>
<path d="M160 1896 c0 -8 -4 -16 -10 -18 -14 -5 0 -48 16 -48 16 0 29 43 20
65 -7 19 -26 20 -26 1z"/>
<path d="M2786 1725 c-11 -8 -15 -15 -9 -15 6 0 16 7 23 15 16 19 11 19 -14 0z"/>
<path d="M3496 1726 c6 -15 34 -30 42 -22 6 7 -24 36 -37 36 -6 0 -8 -6 -5
-14z"/>
<path d="M2838 1723 c6 -2 9 -10 6 -15 -4 -7 -2 -8 5 -4 13 9 5 26 -12 25 -9
0 -8 -2 1 -6z"/>
<path d="M3236 1700 c4 -19 11 -39 16 -45 6 -6 7 1 2 20 -10 46 -25 66 -18 25z"/>
<path d="M3131 1674 c0 -11 3 -14 6 -6 3 7 2 16 -1 19 -3 4 -6 -2 -5 -13z"/>
<path d="M3856 1643 c-4 -9 -2 -21 4 -27 7 -7 10 -2 10 17 0 31 -5 34 -14 10z"/>
<path d="M2790 1640 c-13 -8 -12 -10 3 -10 9 0 17 5 17 10 0 12 -1 12 -20 0z"/>
<path d="M3265 1601 c7 -53 14 -66 27 -53 6 6 2 25 -11 53 l-21 44 5 -44z"/>
<path d="M2995 1610 c10 -11 20 -20 23 -20 3 0 -3 9 -13 20 -10 11 -20 20 -23
20 -3 0 3 -9 13 -20z"/>
<path d="M3165 1620 c3 -5 8 -10 11 -10 2 0 4 5 4 10 0 6 -5 10 -11 10 -5 0
-7 -4 -4 -10z"/>
<path d="M3200 1606 c0 -8 5 -18 10 -21 6 -3 10 3 10 14 0 12 -4 21 -10 21 -5
0 -10 -6 -10 -14z"/>
<path d="M3130 1565 c-7 -9 -11 -18 -8 -20 3 -3 11 1 18 10 7 9 11 18 8 20 -3
3 -11 -1 -18 -10z"/>
<path d="M3170 1554 c0 -23 2 -24 15 -10 8 8 15 17 15 19 0 3 -7 7 -15 11 -11
4 -15 -2 -15 -20z"/>
<path d="M3137 1537 c-3 -8 1 -14 9 -14 8 0 14 6 14 14 0 7 -4 13 -9 13 -5 0
-11 -6 -14 -13z"/>
<path d="M2888 1534 c-3 -3 -2 -20 2 -37 20 -79 21 -89 9 -81 -7 4 -9 3 -5 -4
3 -6 2 -13 -4 -17 -5 -3 -11 -1 -11 4 -1 6 -2 15 -3 21 0 5 -7 15 -13 22 -10
10 -13 9 -13 -1 0 -7 -5 -9 -11 -5 -7 4 -9 -2 -7 -17 1 -13 10 -24 18 -24 8 0
20 -6 25 -12 10 -13 35 -4 38 13 1 5 4 8 7 7 3 -1 7 7 7 18 1 11 -2 17 -7 14
-4 -3 -6 4 -3 15 3 11 1 26 -4 33 -6 6 -13 20 -16 30 -6 15 -3 17 16 12 17 -5
19 -4 7 4 -17 12 -24 13 -32 5z"/>
<path d="M2941 1530 c1 -24 15 -55 21 -44 2 5 -1 20 -8 34 -8 14 -13 18 -13
10z"/>
<path d="M2830 1509 c0 -11 13 -34 30 -52 26 -28 30 -29 30 -12 0 11 -5 27
-11 35 -9 12 -10 12 -5 -4 6 -16 4 -17 -10 -5 -14 12 -14 14 2 26 10 8 13 13
5 13 -7 0 -9 5 -6 10 3 6 -3 10 -14 10 -15 0 -21 -6 -21 -21z"/>
<path d="M2932 1470 c0 -14 2 -19 5 -12 2 6 2 18 0 25 -3 6 -5 1 -5 -13z"/>
<path d="M2972 1444 c-1 -13 0 -24 2 -24 7 0 14 40 7 44 -4 3 -8 -6 -9 -20z"/>
<path d="M3057 1440 c7 -41 33 -86 33 -58 0 9 -5 20 -10 23 -6 4 -8 10 -6 13
2 4 -2 18 -10 32 -13 24 -13 24 -7 -10z"/>
<path d="M2993 1423 c-13 -28 -9 -43 11 -43 8 0 20 -10 29 -22 8 -13 18 -20
23 -15 4 4 -1 14 -12 22 -12 9 -14 14 -6 15 7 0 10 5 6 11 -5 8 -8 8 -14 0 -5
-9 -10 -8 -20 4 -9 11 -10 18 -1 29 7 8 8 16 4 19 -5 3 -14 -6 -20 -20z"/>
<path d="M42 1406 c-18 -9 -21 -16 -16 -41 10 -49 21 -49 38 1 9 26 16 49 16
51 0 5 -14 1 -38 -11z"/>
<path d="M3650 1396 c0 -9 5 -16 10 -16 6 0 10 4 10 9 0 6 -4 13 -10 16 -5 3
-10 -1 -10 -9z"/>
<path d="M3747 1367 c-3 -7 -3 -25 0 -40 3 -16 1 -27 -6 -27 -6 0 -11 9 -11
19 0 12 -11 23 -31 30 -41 14 -41 14 -35 -6 3 -10 7 -46 8 -80 2 -53 5 -63 20
-63 11 0 18 -7 18 -20 0 -13 -7 -20 -20 -20 -11 0 -20 6 -20 14 0 7 -7 19 -15
26 -13 11 -14 0 -10 -86 5 -115 10 -152 25 -214 18 -71 29 -140 35 -205 6 -75
-7 -38 -29 80 -24 134 -38 197 -56 265 -10 36 -21 76 -24 90 -3 14 -12 34 -21
45 -15 19 -16 19 -4 -5 14 -28 28 -243 19 -280 -5 -17 -9 -1 -13 49 -10 116
-23 113 -39 -10 -12 -95 -13 -199 -1 -208 4 -3 20 -31 35 -61 15 -30 40 -75
55 -99 15 -25 21 -41 14 -37 -7 5 -21 22 -32 40 -21 34 -26 16 -9 -29 10 -27
40 -62 48 -57 8 6 53 -90 48 -103 -3 -9 0 -12 8 -9 8 3 20 -12 31 -38 11 -24
32 -58 47 -76 15 -18 39 -54 52 -80 13 -26 33 -56 45 -66 12 -11 21 -23 21
-28 0 -12 -52 50 -79 95 -12 20 -27 37 -31 37 -5 0 -26 18 -46 40 -43 46 -65
53 -35 11 12 -16 21 -33 21 -38 1 -4 12 -21 25 -38 21 -25 27 -28 35 -15 14
22 13 -6 -2 -33 -10 -20 -10 -21 5 -8 10 7 17 9 17 3 0 -6 30 -34 68 -64 37
-29 69 -56 70 -60 2 -5 62 -8 132 -8 l129 0 13 43 c6 23 11 59 9 81 -2 27 0
36 9 31 6 -4 9 -13 6 -21 -3 -8 -1 -14 5 -14 11 0 5 -72 -8 -106 -3 -10 3 -14
20 -14 27 0 30 8 41 118 3 32 -8 53 -17 30 -3 -9 -11 -5 -26 11 -11 13 -21 28
-21 33 0 4 -6 8 -12 8 -11 0 -48 72 -48 93 0 18 18 3 50 -43 40 -57 62 -69 25
-14 -31 45 -31 57 -4 49 20 -7 21 -5 14 21 -16 60 -57 241 -66 293 -5 29 -16
66 -24 82 -8 15 -14 45 -14 66 2 38 -8 100 -19 118 -3 5 -7 41 -9 80 -2 70
-41 185 -61 185 -24 0 -18 -253 8 -340 12 -43 13 -40 -5 -40 -8 0 -17 12 -21
28 -3 15 -12 47 -19 72 -8 25 -19 105 -25 177 -15 169 -34 239 -83 298 -56 66
-70 61 -61 -21 7 -75 -2 -79 -36 -16 -15 29 -20 32 -21 17 -1 -19 -4 -46 -7
-72 -1 -7 -6 -13 -12 -13 -5 0 -10 26 -10 58 0 62 -8 102 -20 102 -4 0 -10 -6
-13 -13z m40 -209 c-3 -8 -6 -5 -6 6 -1 11 2 17 5 13 3 -3 4 -12 1 -19z m20
-120 c-3 -8 -6 -5 -6 6 -1 11 2 17 5 13 3 -3 4 -12 1 -19z m-89 -94 c-4 -3
-15 3 -26 14 -11 11 -18 23 -14 26 3 4 15 -2 26 -13 11 -11 17 -23 14 -27z
m144 -66 c10 -21 17 -38 14 -38 -9 0 -46 72 -45 88 0 14 2 14 6 2 3 -8 14 -32
25 -52z m-264 -103 c-1 -19 -5 -35 -10 -35 -4 0 -8 16 -8 35 0 19 4 35 10 35
5 0 9 -16 8 -35z m160 -160 c0 -16 -2 -15 -8 5 -4 14 -8 34 -8 45 0 16 2 15 8
-5 4 -14 8 -34 8 -45z m166 5 c7 -24 6 -24 -8 -6 -9 11 -16 27 -16 35 0 21 16
2 24 -29z m6 -40 c0 -5 -4 -10 -10 -10 -5 0 -10 5 -10 10 0 6 5 10 10 10 6 0
10 -4 10 -10z m19 -155 c13 -49 14 -115 2 -115 -5 0 -11 33 -14 73 -3 39 -8
88 -11 107 -5 34 -5 34 4 5 5 -16 13 -48 19 -70z m-236 63 c20 -21 41 -68 34
-75 -4 -3 -7 -1 -7 5 0 6 -11 22 -25 36 -23 23 -33 46 -19 46 3 0 11 -6 17
-12z m154 -320 c-3 -8 -6 -5 -6 6 -1 11 2 17 5 13 3 -3 4 -12 1 -19z"/>
<path d="M3000 1356 c0 -2 8 -10 18 -17 15 -13 16 -12 3 4 -13 16 -21 21 -21
13z"/>
<path d="M3020 1300 c0 -13 7 -20 20 -20 18 0 19 3 10 20 -6 11 -15 20 -20 20
-6 0 -10 -9 -10 -20z"/>
<path d="M3263 1296 c4 -10 7 -22 7 -27 0 -5 5 -9 11 -9 15 0 7 43 -10 48 -10
3 -12 0 -8 -12z"/>
<path d="M3222 1283 c5 -25 28 -28 28 -4 0 12 -6 21 -16 21 -9 0 -14 -7 -12
-17z"/>
<path d="M3391 1285 c1 -19 18 -51 18 -35 0 8 -4 22 -9 30 -5 8 -9 11 -9 5z"/>
<path d="M3030 1266 c0 -2 7 -6 15 -10 8 -3 15 -1 15 4 0 6 -7 10 -15 10 -8 0
-15 -2 -15 -4z"/>
<path d="M3406 797 c-5 -9 -5 -34 0 -55 7 -34 8 -35 12 -9 2 15 2 39 0 55 -4
22 -6 24 -12 9z"/>
<path d="M4200 752 c0 -21 6 -47 14 -57 8 -11 12 -25 9 -32 -7 -18 15 -101 33
-127 14 -19 14 -13 10 67 -3 62 -9 92 -21 103 -9 9 -15 26 -13 38 1 11 -1 27
-5 34 -15 23 -27 12 -27 -26z"/>
<path d="M3287 608 c-2 -7 -1 -22 4 -33 6 -16 8 -14 8 13 1 33 -4 41 -12 20z"/>
<path d="M4297 516 c-22 -69 -21 -133 4 -231 11 -44 24 -97 29 -117 7 -25 7
-53 0 -80 -19 -85 -18 -88 49 -88 l59 0 8 63 c12 101 8 350 -7 394 -7 21 -12
43 -11 50 1 6 -3 15 -10 19 -7 4 -10 4 -6 -1 4 -4 3 -14 -3 -22 -17 -20 -38
-130 -40 -208 0 -38 -4 -81 -8 -95 -7 -23 -8 -24 -14 -5 -3 11 -7 83 -9 160
-1 77 -6 145 -11 152 -5 7 -6 21 -2 32 3 10 2 22 -2 24 -5 3 -16 -18 -26 -47z"/>
<path d="M3391 513 c-1 -12 4 -25 9 -28 12 -7 12 2 0 30 -8 19 -9 19 -9 -2z"/>
<path d="M3417 500 c3 -11 7 -20 9 -20 2 0 4 9 4 20 0 11 -4 20 -9 20 -5 0 -7
-9 -4 -20z"/>
<path d="M3580 475 c0 -14 44 -85 52 -85 14 0 9 22 -9 37 -10 8 -11 11 -3 7
13 -7 13 -5 -1 16 -15 23 -39 38 -39 25z"/>
<path d="M3410 460 c0 -5 5 -10 11 -10 5 0 7 5 4 10 -3 6 -8 10 -11 10 -2 0
-4 -4 -4 -10z"/>
<path d="M3660 419 c0 -9 7 -22 15 -29 19 -16 19 0 0 26 -12 16 -14 16 -15 3z"/>
<path d="M3386 407 c3 -10 9 -15 12 -12 3 3 0 11 -7 18 -10 9 -11 8 -5 -6z"/>
<path d="M3570 409 c0 -5 5 -7 10 -4 6 3 10 8 10 11 0 2 -4 4 -10 4 -5 0 -10
-5 -10 -11z"/>
<path d="M3650 387 c0 -19 32 -67 46 -67 11 0 12 3 4 13 -5 6 -19 23 -30 37
-10 14 -19 21 -20 17z"/>
<path d="M3582 371 c-10 -6 -10 -10 3 -21 8 -7 15 -18 15 -25 0 -15 69 -94 70
-79 0 7 -13 26 -28 42 -16 17 -33 44 -38 61 -6 22 -13 28 -22 22z"/>
<path d="M3460 174 c0 -6 7 -19 16 -30 14 -18 14 -18 3 6 -14 31 -19 36 -19
24z"/>
<path d="M3730 103 c0 -5 9 -21 20 -38 24 -36 26 -26 5 15 -15 29 -25 38 -25
23z"/>
<path d="M3840 74 c0 -16 27 -54 46 -65 39 -21 36 -5 -6 33 -22 19 -40 34 -40
32z"/>
<path d="M3575 40 c-10 -16 7 -37 30 -38 20 0 23 4 15 18 -11 21 -37 33 -45
20z m25 -21 c0 -6 -4 -7 -10 -4 -5 3 -10 11 -10 16 0 6 5 7 10 4 6 -3 10 -11
10 -16z"/>
<path d="M4497 43 c-10 -9 -8 -43 2 -43 5 0 11 11 13 25 5 24 -2 32 -15 18z"/>
<path d="M3800 31 c0 -6 4 -13 10 -16 6 -3 7 1 4 9 -7 18 -14 21 -14 7z"/>
<path d="M3770 21 c0 -5 5 -13 10 -16 6 -3 10 -2 10 4 0 5 -4 13 -10 16 -5 3
-10 2 -10 -4z"/>
</g>
</svg>
